<?xml version="1.0" standalone="no"?>
<!DOCTYPE svg PUBLIC "-//W3C//DTD SVG 20010904//EN"
 "http://www.w3.org/TR/2001/REC-SVG-20010904/DTD/svg10.dtd">
<svg version="1.0" xmlns="http://www.w3.org/2000/svg"
 width="1042.000000pt" height="1042.000000pt" viewBox="0 0 1042.000000 1042.000000"
 preserveAspectRatio="xMidYMid meet">
<metadata>
Created by potrace 1.14, written by Peter Selinger 2001-2017
</metadata>
<g transform="translate(0.000000,1042.000000) scale(0.100000,-0.100000)"
fill="#000000" stroke="none">
<path d="M5144 10053 c-27 -21 -53 -41 -59 -45 -5 -5 -32 -23 -60 -40 -27 -18
-53 -37 -57 -43 -4 -5 -8 -7 -8 -2 0 4 -27 -12 -59 -35 -33 -24 -105 -72 -160
-107 -55 -35 -98 -68 -94 -74 3 -6 1 -7 -5 -3 -7 4 -12 2 -12 -3 0 -6 -4 -10
-8 -9 -10 4 -102 -54 -102 -63 0 -4 -24 -19 -52 -33 -29 -14 -60 -30 -68 -35
-8 -6 -53 -34 -100 -62 -47 -29 -87 -56 -88 -60 -2 -5 -8 -7 -13 -3 -5 3 -9 0
-9 -5 0 -6 -6 -11 -14 -11 -8 0 -16 -3 -18 -7 -1 -5 -70 -53 -153 -108 -82
-55 -156 -105 -163 -112 -6 -6 -21 -15 -32 -18 -11 -3 -20 -10 -20 -14 0 -4
-12 -13 -26 -20 -15 -6 -39 -21 -53 -32 -14 -11 -179 -121 -366 -245 -187
-124 -349 -232 -360 -240 -11 -7 -63 -42 -115 -76 -52 -34 -97 -65 -100 -69
-3 -3 -9 -8 -15 -10 -17 -7 -159 -102 -173 -116 -7 -7 -20 -13 -28 -13 -8 0
-14 -5 -14 -10 0 -6 -8 -14 -17 -18 -22 -8 -163 -102 -181 -119 -7 -7 -19 -13
-27 -13 -7 0 -15 -7 -19 -15 -3 -8 -10 -15 -16 -15 -5 0 -46 -25 -90 -55 -44
-30 -84 -55 -89 -55 -5 0 -11 -3 -13 -8 -5 -12 -486 -325 -551 -358 -18 -9
-34 -20 -37 -23 -3 -3 -17 -12 -32 -20 -64 -33 -165 -141 -152 -162 3 -5 0 -9
-7 -9 -7 0 -10 -3 -6 -6 3 -3 1 -18 -5 -33 -8 -19 -11 -701 -10 -2421 2 -2301
3 -2396 20 -2420 10 -13 50 -43 88 -67 38 -23 74 -47 81 -53 7 -5 16 -10 21
-10 5 0 27 -12 49 -27 58 -41 74 -51 120 -75 24 -12 43 -26 43 -30 0 -4 5 -8
11 -8 6 0 29 -12 52 -27 23 -16 51 -33 62 -40 11 -6 100 -61 197 -122 98 -61
182 -111 188 -111 5 0 10 -4 10 -9 0 -5 13 -14 30 -21 16 -7 30 -16 30 -21 0
-5 4 -9 10 -9 13 0 114 -62 118 -72 2 -4 8 -8 13 -8 5 0 88 -49 185 -110 96
-60 180 -110 185 -110 5 0 9 -4 9 -10 0 -5 5 -10 11 -10 6 0 30 -13 54 -30 24
-16 48 -30 53 -30 6 0 12 -3 14 -8 2 -4 48 -35 103 -69 55 -34 105 -66 110
-70 15 -12 271 -166 330 -199 55 -30 243 -148 262 -164 7 -5 17 -10 23 -10 5
0 10 -3 10 -8 0 -4 9 -12 20 -17 26 -12 283 -177 290 -185 3 -4 12 -10 20 -14
23 -11 50 -28 102 -63 26 -18 51 -33 57 -33 6 0 11 -4 11 -10 0 -5 7 -10 15
-10 8 0 15 -4 15 -10 0 -5 5 -10 10 -10 9 0 94 -53 125 -78 6 -4 17 -11 25
-15 8 -4 56 -34 105 -67 50 -33 101 -65 115 -72 14 -7 27 -15 30 -19 3 -3 30
-23 61 -42 31 -20 63 -42 70 -49 66 -63 196 -140 259 -153 142 -31 191 -26
297 28 80 40 146 79 163 97 3 3 34 27 70 52 36 26 70 52 76 57 6 5 49 35 95
67 46 32 86 60 89 64 5 6 373 250 473 313 31 21 81 52 110 71 28 18 117 75
197 126 80 51 191 122 247 159 57 36 110 71 119 76 33 19 149 95 159 103 6 4
44 27 85 50 87 49 115 66 245 147 53 33 104 65 113 70 9 6 43 27 75 48 31 20
62 37 67 37 6 0 10 5 10 10 0 6 6 10 14 10 8 0 16 4 18 8 2 5 37 28 78 52 41
25 77 47 80 50 3 4 12 10 20 13 8 4 33 18 55 32 22 14 56 34 75 45 19 11 51
30 70 41 19 12 53 31 75 42 22 12 42 24 45 27 6 6 31 20 110 63 30 17 57 34
58 39 2 4 7 8 12 8 4 0 110 63 235 140 124 77 229 140 232 140 3 0 40 23 82
50 79 53 113 92 128 151 6 20 9 1010 8 2379 -1 1930 -3 2352 -14 2385 -24 71
-72 124 -168 185 -114 73 -439 286 -443 290 -3 4 -12 9 -20 13 -8 4 -69 43
-135 87 -66 44 -128 83 -137 86 -10 4 -18 10 -18 15 0 5 -7 9 -15 9 -8 0 -15
5 -15 10 0 6 -7 10 -15 10 -8 0 -15 5 -15 10 0 6 -4 10 -9 10 -5 0 -42 22 -83
48 -40 27 -77 51 -83 52 -5 2 -18 11 -28 20 -9 9 -30 23 -45 31 -15 8 -31 18
-37 22 -20 16 -376 247 -381 247 -3 0 -29 18 -59 40 -30 22 -56 40 -59 40 -3
0 -73 45 -156 100 -82 55 -155 100 -160 100 -6 0 -10 5 -10 10 0 6 -4 10 -9
10 -5 0 -44 24 -87 53 -44 29 -162 106 -264 172 -102 66 -186 123 -188 127 -2
5 -7 8 -12 8 -9 0 -287 177 -306 195 -6 5 -27 19 -47 30 -20 11 -37 23 -37 27
0 5 -4 8 -10 8 -5 0 -64 36 -131 80 -66 44 -124 80 -130 80 -5 0 -9 3 -9 8 0
4 -27 23 -60 42 -33 19 -60 38 -60 43 0 4 -4 7 -9 7 -5 0 -40 21 -78 46 -37
25 -85 55 -105 66 -21 12 -38 25 -38 30 0 4 -6 8 -14 8 -7 0 -19 6 -25 13 -6
8 -31 24 -56 37 -25 13 -45 27 -45 32 0 4 -7 8 -15 8 -8 0 -15 5 -15 10 0 6
-6 10 -13 10 -7 0 -22 8 -33 19 -19 17 -31 22 -85 37 -9 2 -38 -12 -65 -33z
m-683 -526 c-10 -9 -11 -8 -5 6 3 10 9 15 12 12 3 -3 0 -11 -7 -18z m-90 -104
c13 -16 12 -17 -3 -4 -10 7 -18 15 -18 17 0 8 8 3 21 -13z m-730 -496 c-10 -9
-11 -8 -5 6 3 10 9 15 12 12 3 -3 0 -11 -7 -18z m934 -207 c-3 -5 -12 -10 -18
-10 -7 0 -6 4 3 10 19 12 23 12 15 0z m-2155 -1145 c-7 -8 -17 -15 -23 -15 -6
0 -2 7 9 15 25 19 30 19 14 0z m2085 -861 c-16 -14 -39 -30 -50 -35 -11 -6 -7
0 10 13 16 13 37 30 45 39 8 9 17 14 20 11 3 -2 -8 -15 -25 -28z m-86 -67 c-2
-2 -17 -11 -34 -21 l-30 -17 24 20 c13 12 28 21 34 21 6 0 8 -1 6 -3z m-69
-41 c0 -3 -13 -14 -30 -26 -16 -12 -30 -18 -30 -13 0 4 12 15 28 25 32 19 32
19 32 14z m2025 -1566 c3 -6 -1 -7 -9 -4 -18 7 -21 14 -7 14 6 0 13 -4 16 -10z
m-3485 -486 c0 -2 -9 0 -20 6 -11 6 -20 13 -20 16 0 2 9 0 20 -6 11 -6 20 -13
20 -16z m66 -40 c18 -14 18 -14 -6 -3 -31 14 -36 19 -24 19 6 0 19 -7 30 -16z
m64 -45 c17 -13 18 -17 5 -10 -33 17 -51 31 -40 31 6 0 21 -10 35 -21z m105
-66 l30 -25 -40 23 c-51 29 -51 29 -34 29 8 -1 28 -12 44 -27z m127 -81 c7 -7
-12 1 -40 19 -29 17 -52 34 -52 36 0 7 81 -41 92 -55z m64 -33 c19 -11 34 -23
34 -26 0 -4 -62 30 -79 44 -16 12 18 -1 45 -18z m84 -50 c17 -13 18 -17 5 -10
-33 17 -51 31 -40 31 6 0 21 -10 35 -21z m50 -34 c11 -13 10 -14 -4 -9 -9 3
-16 10 -16 15 0 13 6 11 20 -6z m45 -44 c-6 -5 -25 10 -25 20 0 5 6 4 14 -3 8
-7 12 -15 11 -17z m4152 -207 c-3 -3 -12 -4 -19 -1 -8 3 -5 6 6 6 11 1 17 -2
13 -5z m-1317 -259 c0 -8 -2 -15 -4 -15 -2 0 -6 7 -10 15 -3 8 -1 15 4 15 6 0
10 -7 10 -15z m-63 -100 c0 -8 -4 -12 -9 -9 -5 3 -6 10 -3 15 9 13 12 11 12
-6z m7 -42 c4 -10 4 -14 0 -10 -4 4 -13 -1 -21 -11 -11 -15 -12 -13 -2 11 14
32 15 32 23 10z m-64 -127 c0 -3 -4 -8 -10 -11 -5 -3 -10 -1 -10 4 0 6 5 11
10 11 6 0 10 -2 10 -4z m0 -60 c0 -3 -4 -8 -10 -11 -5 -3 -10 -1 -10 4 0 6 5
11 10 11 6 0 10 -2 10 -4z m-44 -84 c-17 -16 -18 -16 -5 5 7 12 15 20 18 17 3
-2 -3 -12 -13 -22z m95 -215 c-10 -9 -11 -8 -5 6 3 10 9 15 12 12 3 -3 0 -11
-7 -18z m-2630 -1284 c13 -16 12 -17 -3 -4 -17 13 -22 21 -14 21 2 0 10 -8 17
-17z m76 -53 c14 -11 22 -20 18 -20 -4 0 -18 9 -32 20 -14 11 -22 20 -18 20 4
0 18 -9 32 -20z m54 -37 c13 -16 12 -17 -3 -4 -10 7 -18 15 -18 17 0 8 8 3 21
-13z m79 -49 c0 -2 -13 2 -30 11 -16 9 -30 18 -30 21 0 2 14 -2 30 -11 17 -9
30 -18 30 -21z m28 -29 c-3 -3 -9 2 -12 12 -6 14 -5 15 5 6 7 -7 10 -15 7 -18z
m32 -10 c7 -9 8 -15 2 -15 -5 0 -12 7 -16 15 -3 8 -4 15 -2 15 2 0 9 -7 16
-15z m1230 -33 c0 -8 -23 -22 -65 -41 -14 -6 18 22 40 36 25 15 25 15 25 5z
m-1165 -12 c3 -5 1 -10 -4 -10 -6 0 -11 5 -11 10 0 6 2 10 4 10 3 0 8 -4 11
-10z m40 -28 c-3 -3 -11 0 -18 7 -9 10 -8 11 6 5 10 -3 15 -9 12 -12z m55 -34
c0 -12 -6 -9 -26 13 -19 22 -19 22 4 8 12 -8 22 -17 22 -21z m990 24 c0 -11
-160 -115 -167 -108 -3 3 5 10 18 16 13 6 51 30 84 54 69 51 65 48 65 38z
m-955 -50 c-3 -3 -11 0 -18 7 -9 10 -8 11 6 5 10 -3 15 -9 12 -12z m75 -44 c0
-6 -6 -5 -15 2 -8 7 -15 14 -15 16 0 2 7 1 15 -2 8 -4 15 -11 15 -16z m692
-35 c-7 -3 -18 -10 -25 -17 -19 -18 -68 -48 -73 -44 -2 2 20 20 49 40 28 19
54 33 57 30 3 -2 -1 -7 -8 -9z m-579 -42 c7 -8 -7 -2 -30 14 -24 15 -43 30
-43 32 0 7 61 -31 73 -46z m87 -57 c0 -3 -13 4 -30 16 -16 12 -30 24 -30 26 0
3 14 -4 30 -16 17 -12 30 -24 30 -26z m374 18 c-181 -125 -217 -141 -245 -104
-11 14 -11 15 1 5 8 -7 25 -13 38 -13 25 0 152 78 152 93 0 4 4 6 9 3 4 -3 16
3 26 14 10 11 21 18 24 15 3 -4 1 -9 -5 -13z m1996 14 c0 -2 -8 -10 -17 -17
-16 -13 -17 -12 -4 4 13 16 21 21 21 13z m-2333 -52 c-3 -3 -12 -4 -19 -1 -8
3 -5 6 6 6 11 1 17 -2 13 -5z m38 -24 c16 -17 16 -20 3 -15 -9 4 -19 13 -22
21 -7 19 -2 18 19 -6z"/>
</g>
</svg>
