<svg xmlns="http://www.w3.org/2000/svg" version="1.1" xmlns:xlink="http://www.w3.org/1999/xlink" xmlns:svgjs="http://svgjs.dev/svgjs" width="533.11" height="593.74"><svg id="SvgjsSvg1009" data-name="Ebene 1" xmlns="http://www.w3.org/2000/svg" viewBox="0 0 533.11 593.74">
  <defs>
    <style>
      .cls-1 {
        fill: #5b8373;
      }

      .cls-2 {
        fill: #346256;
      }

      .cls-3 {
        fill: #4a7b69;
      }

      .cls-4 {
        fill: #0f2f28;
      }

      .cls-5 {
        fill: #528371;
      }

      .cls-6 {
        fill: #2f5b4f;
      }

      .cls-7 {
        fill: #497a6a;
      }

      .cls-8 {
        fill: #497363;
      }

      .cls-9 {
        fill: #7fb299;
      }

      .cls-10 {
        fill: #4f9772;
      }

      .cls-11 {
        fill: #264c41;
      }

      .cls-12 {
        fill: #82be95;
      }

      .cls-13 {
        fill: #cefad5;
      }

      .cls-14 {
        fill: #589e78;
      }

      .cls-15 {
        fill: #6aa782;
      }

      .cls-16 {
        fill: #01180d;
      }

      .cls-17 {
        fill: #104639;
      }

      .cls-18 {
        fill: #1b3f35;
      }

      .cls-19 {
        fill: #ebfeea;
      }

      .cls-20 {
        fill: #1f4338;
      }

      .cls-21 {
        fill: #4a7b6a;
      }

      .cls-22 {
        fill: #0f483b;
      }

      .cls-23 {
        fill: #22473c;
      }

      .cls-24 {
        fill: #5a8c78;
      }

      .cls-25 {
        fill: #3c6557;
      }

      .cls-26 {
        fill: #0e302b;
      }

      .cls-27 {
        fill: #264f45;
      }

      .cls-28 {
        fill: #254b40;
      }

      .cls-29 {
        fill: #61a780;
      }

      .cls-30 {
        fill: #041614;
      }

      .cls-31 {
        fill: #05221e;
      }

      .cls-32 {
        fill: #2c594f;
      }

      .cls-33 {
        fill: #1b3e35;
      }

      .cls-34 {
        fill: #11312a;
      }

      .cls-35 {
        fill: #3e6c5e;
      }

      .cls-36 {
        fill: #3e6d5f;
      }

      .cls-37 {
        fill: #244e46;
      }

      .cls-38 {
        fill: #3c6c5e;
      }

      .cls-39 {
        fill: #507e6d;
      }

      .cls-40 {
        fill: #041917;
      }

      .cls-41 {
        fill: #21473c;
      }

      .cls-42 {
        fill: #69ab83;
      }

      .cls-43 {
        fill: #a3d5aa;
      }

      .cls-44 {
        fill: #cff8d9;
      }

      .cls-45 {
        fill: #436b5d;
      }

      .cls-46 {
        fill: #659985;
      }

      .cls-47 {
        fill: #15372f;
      }

      .cls-48 {
        fill: #021716;
      }

      .cls-49 {
        fill: #022112;
      }

      .cls-50 {
        fill: #1f473f;
      }

      .cls-51 {
        fill: #021412;
      }

      .cls-52 {
        fill: #195b49;
      }

      .cls-53 {
        fill: #294f43;
      }

      .cls-54 {
        fill: #82bf92;
      }

      .cls-55 {
        fill: #4f906d;
      }

      .cls-56 {
        fill: #145b4b;
      }

      .cls-57 {
        fill: #12332b;
      }

      .cls-58 {
        fill: #3b685a;
      }

      .cls-59 {
        fill: #b1ecc7;
      }

      .cls-60 {
        fill: #1a624d;
      }

      .cls-61 {
        fill: #14362e;
      }

      .cls-62 {
        fill: #0b2923;
      }

      .cls-63 {
        fill: #08201b;
      }

      .cls-64 {
        fill: #1d4137;
      }

      .cls-65 {
        fill: #4b916a;
      }

      .cls-66 {
        fill: #282f2d;
      }

      .cls-67 {
        fill: #06211e;
      }
    </style>
  </defs>
  <path class="cls-7" d="M103.03,79.32c31.16-17.28,62.34-34.52,93.46-51.87,12.16-6.77,24.21-13.74,36.68-19.93,2.13,.58,4.23,.42,6.27-.4,9.82-3.94,20.04-5,30.51-4.31,2.67,.1,5.18,.86,7.64,1.83,.67,4.03-2.56,2.63-4.39,3.09-1.8,.46-4.49-1.6-5.34,.75-.97,2.7,2.04,3.65,3.75,5.15,3.64,3.21,8.25,4.81,12.02,7.89,3.58,2.93,5.59,7.17,9.55,9.8,1.95,1.29,1.99,4.58,.77,6.96-1.03,2.01-3.14,2.32-5.24,1.95-1.21-.21-2.3,.19-3.45,.33-3.57,.37-6.91-.9-10.33-1.49-14.22-2.45-27.35,1.13-40.11,6.95-4.83,.1-6.49-1.01-5.74-4.94,.65-3.47-.87-4.69-3.44-6.12-7.45-4.15-7.4-4.25-7.83-11.99-8.21,3.73-15.79,8.45-23.62,12.68-22.96,12.42-45.78,25.12-68.63,37.76-1.51,.93-3.07,1.76-4.82,2.15-3.38-.04-6.24,.95-9.09,3.03-2.39,1.74-5.47,4.5-8.65,.72Z"></path>
  <path class="cls-9" d="M277.85,5.38c-2.61-.38-5.22-.77-7.83-1.15-.24-1.87,1.25-1.25,2.14-1.49-.99,.01-1.95-.2-2.96-.09-2.96,.32-5.95,.18-8.92,.1-1.69-.04-3.81,.34-4.2-2.26,16.34-1.95,31.35,2.22,45.6,9.89,63.59,34.2,126.91,68.9,189.54,104.82,16.12,9.25,28.17,22.13,35.09,39.57,1.73,4.35,2.89,8.83,3.64,13.43,.54,1.06,.93,2.47-.28,2.93-1.32,.5-1.54-1.14-2.15-2.02-1.2-1.73,.85-4.92-2.57-5.6-3.17-2.42-2.98-6.51-4.8-9.62-1-1.7-1.78-3.55-2.73-5.29-.27-.38-.49-.78-.68-1.2-.87-2.32-2.19-4.37-3.85-6.2-1.53-1.35-3.19-2.58-4.13-4.48-1.7-3.43-4.24-5.98-7.8-7.46-28.08-19.8-58.85-35.03-88.73-51.74-29.18-16.32-58.45-32.48-87.92-48.29-14.35-7.7-28.23-16.37-43.75-21.72-1.13-.39-2.02-1.14-2.69-2.14Z"></path>
  <path class="cls-38" d="M103.03,79.32c3.07,1.02,5.9,0,8.02-1.91,2.95-2.65,6.17-3.47,9.91-3.13,.07,2.83-2.41,3.26-4.16,4.25-22.03,12.59-44.25,24.86-66.35,37.33-.73,.41-1.4,.88-2.07,1.36-5.88,2.57-10.62,7.19-16.77,9.28-2.2-.55-5.21,2.96-6.69-1.3,7.71-7.5,17.47-11.86,26.6-17.13,15.34-8.86,30.91-17.33,46.39-25.96,1.71-.93,3.41-1.87,5.12-2.8Z"></path>
  <path class="cls-24" d="M524.95,163.13c.51-.95,1.01-1.9,1.64-3.08,1.61,2.87,1.55,6,2.33,8.9,.09,.32-.31,1.57,.77,.65,.28-.24,.18-.93,.25-1.41,1.84,4.48,.78,9.19,1.13,13.79,.16,2.13-.45,4.34,.69,6.37,1.36,4.54,.4,9.18,.58,13.77,.27,6.77,1.06,13.68,.65,20.26-.82,12.92,.04,25.84-.86,38.72-3.34,.34-2.71-2.14-2.72-3.99-.05-8.99-.02-17.98-.02-26.97,0-14.3,0-28.59,0-42.89,0,17.39,.27,34.79-.1,52.18-.26,12.32,1.44,24.54,1.08,36.84-.06,2.06,.59,5.5-1.79,5.5-3.09,0-2.09-3.57-2.11-5.65-.13-12.48-.1-24.97-.04-37.46,.01-3.19-.17-6.31-1.09-9.37-.75-12.96-.66-25.92-.1-38.88,.12-2.83,.25-5.65-.03-8.46-.36-4.87-.18-9.78-1.07-14.63-.27-1.43-.23-2.95,.82-4.2Z"></path>
  <path class="cls-46" d="M256.08,.48c6.34,2.03,13.18-.39,19.47,2.4-1.6,1.11-4.06-.47-5.53,1.34-10.82-.57-21.36,.64-31.31,5.18-2.67,1.22-3.89-.72-5.54-1.88,7.29-3.47,14.83-6.13,22.91-7.04Z"></path>
  <path class="cls-32" d="M5.97,150.26c2.12-4.99,4.94-9.57,8.01-14.01,1.41-1.26,2.07-3.25,3.96-4.04,5.67-.32,9.35-4.65,14.03-6.97,5.43-2.83,9.84-7.47,16-9,1.19-.45,2.36,.26,2.29,1.14-.48,6.09,4.49,8.77,7.61,12.59,1.49,1.82,3.18,3.63,2.75,6.14-.42,2.45,1.1,3.63,2.54,4.98,.46,2.81-1.8,3.79-3.44,5.19-8.74,5.35-15.53,12.13-16.68,23-.49,1.88-1.34,3.63-1.97,5.47-.69,1.53-.9,3.39-2.77,4.13-1.66,.39-2.73-.43-3.43-2.27-1.01,4-1.27,7.54-1.4,11.1-.29,7.51,.54,15.02-.46,22.5-.99,1.72-2,1.5-2.85-.08-.96-1.77-.5-3.53,.3-5.24-1.39,2.87-2.94,5.66-3.16,8.98-.09,1.33-.71,2.71-2.33,2.8-1.77,.1-2.62-1.2-3.15-2.68-.68-1.87-.72-3.91-1.44-5.78-.47-1.22-1.23-1.99-2.6-1.81-1.33,.18-3.24,.62-3.05,1.98,.56,4.04-2.33,6.13-4.53,8.3-3.66,3.61-4.58,7.86-4.56,12.65,.01,2.81,.18,5.69-1.25,8.26-.89,1.59-2.04,2.96-3.55,.41-.84-1.89-.8-3.88-.8-5.87-.02-17.54-.06-35.09,.03-52.63,.02-4.26-.04-8.65,2.9-12.27,1.9-2.7,1.54-6.12,2.88-8.99-1.46-2.69,.44-5.32,.14-7.99Z"></path>
  <path class="cls-2" d="M31.97,125.25c-2.15,3.51-5.48,5.63-9,7.43-1.64,.84-3.48,1.1-5.02-.46,2-2.66,4.3-5.03,6.98-7.01,2.33,2.19,4.7-.82,7.04,.04Z"></path>
  <path class="cls-40" d="M39.96,174.24c.44-1.75,.71-3.58,1.98-5.01,1.54-6.39,6.41-10.62,10.19-15.53,2.21-2.87,4.52-5.68,6.82-8.48,1.4-1.3,2.8-2.6,4.19-3.9,.3-2.34,2.2-3.27,3.94-4.16,16.43-8.45,32.38-17.77,48.54-26.72,6.53-3.62,13.03-7.34,19.49-11.11,3.04-1.83,6.15-3.52,9.26-5.22,2.63-.99,4.89-2.63,7.23-4.14,25.19-14.28,50.46-28.41,75.73-42.53,2.1-1.18,4.51-1,6.52-2.2,13.95-8.19,28.89-10.36,44.67-7.3,2.44,.47,4.88,.98,7.32,1.47,3.61,0,6.79,1.42,9.87,3.05,27.94,14.83,55.25,30.78,82.94,46.07,19.96,11.02,39.64,22.55,59.54,33.7,11.15,6.25,22.4,12.36,33.24,19.15,6.7,5.13,12.87,10.78,17.41,18,1.85,2.93,3.72,5.87,3.4,9.59-.44,1.79-.83,3.56-.32,5.4,3.6,13.02,2.85,26.38,2.87,39.64,.09,58.37,.08,116.75,.03,175.12,0,6.83-.62,13.61-2.73,20.16-2.82,7.84-5.24,15.9-10.98,22.32-2.98,3.13-5.3,6.87-8.83,9.5-3.41,2.55-6.6,5.41-10.44,7.34-1.57,.79-3.07,2.07-5.01,.91-.74-2.71,1.25-4,3.01-5.05,2.53-1.51,4.19-3.64,5.52-6.15,9.77-9.77,16.78-21.03,19.12-34.9,.56-3.31,.73-6.61,.74-9.94,.12-33.13,.14-66.26,0-99.39-.07-18.79,.69-37.57,.68-56.36,0-13.03,.12-26.12,.28-39.17,.09-7.17-.79-14.55-3.97-21.37-5.25-11.29-13.73-19.72-23.98-26.15-15.89-9.98-32.52-18.74-48.98-27.75-10.37-5.68-20.97-11.01-31.02-17.17-15.48-9.48-31.3-18.38-47.28-26.9-14.09-7.51-27.45-16.4-42.2-22.66-9.79-4.16-19.77-6.98-30.54-4.93-10.39,1.31-19.73,5.43-28.58,10.8-54.67,30.84-109.29,61.77-164.1,92.38-6.92,2.43-10.75,8.57-15.79,13.24-2.18,2.02-3.76,4.65-5.94,6.68-1.7,1.59-1.91,1.47-3.84-.32Z"></path>
  <path class="cls-5" d="M470.6,142.46c-35.61-20.17-71.17-40.42-106.84-60.48-23.35-13.13-46.84-26-70.29-38.94-2.46-1.36-5.08-2.42-7.63-3.62,.54-.7,1.24-1.19,2.13-.91,1.96,.61,4.6,1.36,5.02-1.08,.41-2.41,.78-5.67-2.85-7.12-2.29-.92-5.38-1.67-4.37-5.44-4.22,.29-4.88-4.37-8.23-5.83-4.74-2.05-10.27-3.93-11.96-10.14-.92-3.39,.54-3.95,3.18-3.4,3.07,.64,6.08,1.65,9.09-.11,9.36,2.09,17.77,6.5,26.07,11.02,38.51,20.95,76.99,41.96,115.37,63.15,22.81,12.6,45.47,25.48,68.07,38.46,5.13,2.94,9.71,6.83,14.54,10.28,3.08,2.26,5.7,4.98,8.03,8,1.32,1.32,2.64,2.64,3.96,3.96,.39,2.89,2.38,4.85,4.06,6.99v-.02c-2.19,3.01-5.46,3.58-7.93,.67-7.71-9.1-17.81-12.17-29.19-12.43-1.54-.04-2.87-.7-4.17-1.49-4.32-2.65-8.28-4.93-14.12-4.72-3.58,.13-8.62-1.14-12.45-3.49-2.07-1.26-4.4-2-6.4-3.4,1.41,2.19,3.87,2.49,5.96,3.26,7.39,2.74,12.73,8.63,19.48,12.32,1.29,.71,2.53,1.71,2.82,3.32,.16,.91-.16,1.64-1.35,1.2Z"></path>
  <path class="cls-38" d="M233.85,45.25c-11.93,6.8-23.82,13.67-35.8,20.39-15.33,8.6-30.74,17.09-46.11,25.62-4.96,3.18-9.02-.33-13.36-1.76-.46-.14-.89-.34-1.31-.56-1.25-1.12-3.02-1.39-4.26-2.53-1.15-1.06-2.37-2.5-1.47-3.89,2.96-4.55-.44-6.12-3.39-8-1.1-.7-2.49-1.01-3.2-2.26,10.69-6.01,21.37-12.05,32.08-18.02,11.72-6.54,23.43-13.08,35.21-19.5,9.25-5.04,18.59-9.9,28.42-15.12-.56,2.13-1.1,3.63-1.32,5.18-.88,6.16,4.31,7.44,8.13,9.35,3.29,1.65,5.49,2.58,2.95,6.84-1.59,2.66,.46,4.28,3.43,4.27Z"></path>
  <path class="cls-2" d="M124.95,72.26c4.31-.36,6.71,2.83,9.46,5.25,.76,.67,1.64,2.13,.43,3.02-5.46,4-.94,4.81,1.86,6.28,.53,.28,.84,.96,1.26,1.46-.66,.93-1.34,1.85-1.79,1.97,.39-.18,1.19-.97,1.79-1.97,1.5,0,3.27-.32,4.32,.77,2.81,2.9,6.24,2.39,9.67,2.23-2.16,1.62-4.27,3.32-7.03,3.83-4.71-1.27-6.61,2.43-9.08,5.13-6.62,3.98-13.17,8.11-19.89,11.92-14.06,7.97-28.19,15.8-42.32,23.65-3.45,1.92-6.98,3.69-10.48,5.53-3.41-.19-6.29-.61-3.81-5.26,1.07-2-.92-3.66-2.08-4.61-2.08-1.72-3.72-3.76-5.28-5.85-1.63-2.19-6.38-3.61-2.43-7.67,.03-.03-1.03-1.1-1.57-1.68,4.61-4.75,10.86-6.88,16.41-10.06,18.23-10.44,36.69-20.48,55.05-30.69,.56-.31,1.03-.81,1.54-1.22,1.33-.67,2.66-1.34,3.99-2.02Z"></path>
  <path class="cls-21" d="M470.6,142.46c-.24-4.11-4.26-4.19-6.62-5.87-2.38-1.7-5.49-2.35-6.44-5.67-.12-.42-.78-1.09-.95-1.02-4.62,1.74-6.51-3.95-10.58-3.86-1.02,.02-2.33-.72-3.04-1.52-1.14-1.3-3.4-3.08-2.26-4.48,1.53-1.87,3.01,.29,4.74,1.27,3.97,2.26,7.68,6.29,13.13,4.24,.15-.06,.43-.15,.47-.09,2.47,3.39,6.15,1.09,9.04,1.98,3.46,1.06,6.84,2.79,9.54,5.48,.96,.95,2.26,1.39,3.67,1.25,9.53-.91,17.65,2.66,25.27,7.9,1.25,.86,2.55,1.66,3.19,3.06,1.88,4.15,4.84,3.79,8.18,2.09,3.79,4.67,5.56,10.22,6.98,15.93,1.7,5.94,2.22,12.01,1.9,18.16-.7,1.17-.81,2.48-.95,3.79-.74,7.41-6.62,10.25-12.95,6.33-3.49-2.16-7.54-3.43-10.78-7.17-.52,3.39-.95,6.23-1.47,9.06-.25,1.34-.63,2.92-2.18,2.92-1.63,0-1.89-1.65-1.98-2.97-.1-1.51-.58-2.92-.92-4.37-.87-7.38-3.26-14.43-4.7-21.68-3.03-8.69-9.2-14.97-15.94-20.82-1.48-1.29-2.92-2.62-4.38-3.92Z"></path>
  <path class="cls-21" d="M517.96,147.23c-2.8-1.49-6.18-2.64-4.06-6.99,1.75,2.1,3.56,4.16,4.06,6.99Z"></path>
  <path class="cls-21" d="M509.93,136.28c-3.09-2.25-5.75-4.94-8.03-8,3.75,1.59,6.49,4.2,8.03,8Z"></path>
  <path class="cls-36" d="M497.04,189.21c1.67,1.74,.17,4.19,1.84,7.03-.03-5.15,2.28-9.05,1.14-13.44-.19-.74-.18-1.83,.92-1.94,.5-.05,1.37,.44,1.55,.89,2.39,6.02,9.57,5.6,13.33,9.98,1.56,1.81,8.47-2.23,8.93-5.06,.32-1.98,.38-3.97,2.09-5.37,.02,15.97,.05,31.95,.07,47.92,1.05,11.45,.17,22.93,.46,34.38-.61,4.76-.78,9.55-.54,14.34,.16,3.23-.88,6.23-1.94,9.13-1.35,3.69-5.17,5.03-9.11,3.87-2.72-.8-5.41-3.99-8.22-1.65-3.24,2.69-6.06,6.02-7.13,10.41-.5,2.06-.47,5.14-4.18,3.28-1.53-2.57-1.15-5.3-.75-8.04,1.97-4.51,.97-9.12,.41-13.72-.06-.55-.04-1.09,.02-1.64,.94-4.23,.57-8.38-.68-12.5-.72-12.58-.23-25.17-.32-37.75-.08-10.93-.09-21.86,0-32.79,.02-2.6-.36-5.39,2.1-7.32Z"></path>
  <path class="cls-3" d="M526.87,265.26c.02-12.02,.04-24.03,.05-36.05,1.52,1.72,.91,3.81,.92,5.75,.05,15.29,.03,30.59,.98,45.88v-96.35c.34,0,.69,0,1.03,0,0,2.62,0,5.24,0,7.86,.01,20.99,.02,41.98,.06,62.97,0,2.09-.61,4.45,1.81,5.81,.05,32.06,.12,64.12,.15,96.18,.02,20.27-.02,40.54-.04,60.8-1.41,1.78-.65,3.95-1.07,5.91-1.99-.05-2.05-1.56-1.8-2.82,.88-4.29,.09-8.63,.43-12.18-.09,2.55,.03,5.85-.04,9.14-.02,1.01-.06,2.12-1.37,2.25-1.19,.12-1.73-.79-2.11-1.75-.44-1.11-.52-2.28-.36-3.44,1.31-9.63,.18-19.3-.04-28.91-.32-13.98-.3-27.95-.5-41.92-.23-16.99-.37-33.99,.07-50.97,.24-9.39,1.09-18.79,1.81-28.17Z"></path>
  <path class="cls-27" d="M518.92,452.21c-1.34,1.67-2.69,3.33-4.03,5-5.33,1.45-8.28,6.27-12.71,9.01-2.64,1.63-5.14,3.52-7.78,5.2-14.07,8.9-28.64,16.95-42.92,25.49-31.86,19.05-63.96,37.69-96.01,56.41-8.91,5.21-17.7,10.62-26.79,15.51-1.75,.94-3.42,2.12-5.55,1.98-2.99-4.04-1.8-9.28,2.55-10.39,2.87-.74,4.89-3.39,8.12-3.25,.75,.03,1.61-.84,1.47-1.74-.28-1.81-1.87-3.12-2.08-5-.35-3.01-2.48-1.17-3.82-1.32-1.53-.17-2.88-.75-4.24-1.37-1.66-.75-3.13-1.62-4.9,.2-1.72,1.76-3.36,.43-4.64-1-1.31-1.46-1.35-3.12,.13-4.41,1.54-1.35,2.81-2.77,3.26-4.81,1.96-3.14,5.33-4.47,8.31-6.22,32.43-19.1,64.54-38.74,96.91-57.95,14.18-8.42,28.56-16.48,42.45-25.38,2.53-1.62,4.89-3.47,7.33-5.2,5.56-5.61,12.45-9.71,17.55-15.9,3.65-4.44,9.89-3.17,14.62-5.44,.29-.14,.66,0,.97,.14,5.93,2.66,5.93,2.62,12.95,2.29,2.54-.12,3.54,1.56,3.64,3.78,.1,2.15-.21,4.3-.7,6.49,1.63-.34,3.25-1.93,4.9-.12-.66,2-1.31,3.99-1.97,5.99-2.33,4.01-4.67,8.01-7,12.02Z"></path>
  <path class="cls-66" d="M5.97,150.26c2.65,2.71,.42,5.33-.14,7.99-2.46,.03-3.16-1.06-2.23-3.35,.66-1.62,.85-3.46,2.37-4.64Z"></path>
  <path class="cls-34" d="M39.96,174.24c2.51,1.66,2.94-.85,4.03-2.02,6.42-6.96,11.99-14.85,20.99-18.94,.56,3.28-2.2,4.51-3.96,6.32-5.54,5.75-11.06,11.5-13.51,19.39-.7,2.24-1.06,4.52-.92,6.87,.14,2.45,1.34,2.76,3.29,1.66,2.42-1.36,3.61-3.83,5.41-5.75,3.19-3.41,5.97-7.75,11.75-6.74,.28,.42,.39,.88,.36,1.38-7.25,9.34-5.87,18.49,.05,27.98,4.71,7.56,8.37,15.75,14.11,22.73,2,2.44,4.47,5.97-.24,8.74-2.97,.06-4.1-2.33-5.59-4.24-2.96-3.81-5.29-8.16-9.19-11.33-1.83,2.06-.45,5.05-2.88,6.38-2.9,1.06-1.93,3.59-1.93,5.56,.02,16.14-.27,32.28-.19,48.43,.18,36.8,.16,73.6,.15,110.4,0,7.92,.93,15.7,5.08,22.62,3.56,5.94,8.5,10.65,14.51,14.15,49.78,29.02,99.61,57.97,149.26,87.22,11.19,6.59,22.87,11.43,36.17,11.45,10.67,.02,20.27-3.34,29.41-8.43,16.59-9.24,32.77-19.18,49.16-28.74,2.8-1.63,5.3-4.21,9-3.79,2.83,2.4,.2,3.62-1.14,5.09-2.97,3.25-2.87,3.86,1.12,5.4,1.09,.42,2.17,.84,3.23,1.31,2.21,.99,3.91,.88,4.39-1.97,.42-2.5,1.42-4.07,4.38-2.96,1.88,.7,2.58-1.1,3.6-2.07,2.05-1.93,4.2-3.25,7.16-2.09,1.68,.66,3.61,.61,4.53-.98,2.98-5.14,8.49-6.24,13.23-8.31,6.57-2.87,12.77-6.39,18.85-10.07,12.51-7.58,25.26-14.78,37.72-22.45,3.26-2.01,6.47-4.08,9.65-6.21,1.44-.97,2.88-2.51,4.89-1.04-.66,2.99-2.59,4.83-5.24,6.18-1.64,.83-2.9,2.19-3.76,3.86,.49,2.67-1.71,3.36-3.34,4.32-42.4,25.05-84.23,51.04-126.67,76.01-4.87,2.86-9.77,5.7-14.51,8.79-8.83,5.77-18.24,10.29-28.5,12.96-22.66,5.77-42.97-.25-62.3-12.06-29.83-18.23-60.07-35.78-90.18-53.54-21.22-12.52-42.45-25.02-63.75-37.41-15.48-9-26.02-22.03-30.89-39.44-1.13-4.37-1.79-8.77-1.79-13.31,.03-69.06,.02-138.12,.03-207.18,0-3.66-.26-7.42,2.96-10.14,.66-1.34,1.32-2.67,1.98-4.01Z"></path>
  <path class="cls-37" d="M2.05,378.15c0-46.33,0-92.65,0-138.98,2.67-3.5,2.09-7.62,1.86-11.52-.4-6.84,3.77-11.1,8.05-15.33,.67-.66,2.11-.89,1.19-2.02-4.53-5.55,1.99-4.73,3.67-5.59,3.02-1.55,5.5-.31,5.41,3.72,0,.31,.15,.66,.31,.94,1.1,1.96-.62,6.04,2.02,5.96,2.91-.08,1.01-3.8,1.4-5.86,.57-2.95,4.69-3.48,4.3-7.02,1.54,2.86-.33,6.17,1.61,8.81,1.59,1.13,1.55,2.85,1.55,4.5-.05,42.82,.26,85.64-.11,128.45-.18,.81-.42,1.7-1.27,1.99-1.18,.41-1.15,.49-1.31,1.12-.59,2.39,2.48-.27,2.17,1.63,.8,2.86,.85,5.72-.04,8.56-4.12,1.15-6.86-.49-8.31-4.95-1.26-3.88-1.01-8.18-3.84-11.66-2.76-3.4-9.82-3.12-12.02,.71-3.02,5.28-2.35,11.01-1.79,16.57,.61,6.13-2.24,11.7-2.19,17.71,.01,1.17-.85,2.59-2.66,2.24Z"></path>
  <path class="cls-39" d="M31.87,346.17c0-44.97,0-89.94,0-134.91,.05-8.32,.1-16.63,.15-24.95,2.59,.22,2.43,2.4,2.71,4.07,.39,2.3,.19,4.65,.19,6.98,0,65.46,.04,130.91-.04,196.37,0,7.85,1.53,15.41,2.96,23.02,.38-2.15-2.56-4.68,.96-6.4,5.29,17.87,17.52,29.68,33.2,38.77,51.12,29.63,102.08,59.56,152.64,90.14,14.16,8.56,29.39,13.22,45.98,12.77,4.42-.12,8.81-1.33,13.22-2.04,2.15,1.82,0,2.49-1.02,2.67-2.88,.5-5.68,1.54-8.29,1.51,2.54,1.19,6.09-3.59,8.64,.94-1.26,2.18-3.48,2.33-5.61,2.69-19.3,3.28-37.07-1.2-53.58-11.06-46.29-27.64-92.76-54.97-139.23-82.29-6.6-3.88-13.2-7.75-19.84-11.55-18-10.3-29.82-25.19-33.92-45.79-.42-2.13-.65-4.28-.65-6.45-.02-12.15-.04-24.29,.02-36.44,.01-2.11-.36-4.39,1.53-6.06l.02-9.94c-.54-.68-.54-1.37-.02-2.06Z"></path>
  <path class="cls-58" d="M38.79,410.36c-1.6,4.57,2.38,8.35,2,13.41-2.35-1.8-3.05-3.96-3.73-6.03-2.5-7.6-4.12-15.32-4.12-23.4,.07-67.27,.05-134.53,0-201.8,0-2.08,.75-4.36-.93-6.22-.39-3.73,.62-7.25,1.74-10.73,.38-1.19,.48-3.14,2.24-2.69,1.62,.41,.51,1.91,.27,2.94-.34,1.47,.31,2.2,1.72,2.41-1.23,4.55-1.04,9.2-1.04,13.84-.03,67.01,0,134.03-.11,201.04,0,5.86,.88,11.54,1.96,17.24Z"></path>
  <path class="cls-34" d="M58.95,145.22c-1.77,7.51-8.49,11.6-12.26,17.74-1.37,2.22-3.15,4.19-4.74,6.27,.41-11.72,7.73-18.56,17.01-24.01Z"></path>
  <path class="cls-6" d="M527.89,434.2c-3.53-.57-4.71,3.14-8.58,4.85,2.91-3.93,2.22-7.53,3.08-10.82,.35-1.35-.05-2.38-1.16-2.97-1.48-.79-1.25,1.07-1.97,1.48-.7,.4-2.02,1.09-2.12,.95-2.95-4.05-6.49-1.05-9.76-.89-.96,.05-1.69-.28-1.97-1.13-.47-1.46,1.6-1.55,1.68-3.3-3.48,1.78-6.92,2.87-10.66,3.25-4.04,.41-5.3,4.75-7.87,7.17-.86,.8-1.43,2.17-2.98,2.69-4.65,1.54-6.69,6.35-10.72,8.69-2.17-.58-4.51-1.04-3.03-4.23,2.66-2.93,5.31-5.87,7.97-8.8,7.08-2.04,8.83-8.45,11.32-14.12,1.25-2.84,1.96-5.96,2.06-9.16,1.31-6.22,1.82-12.48,1.79-18.85-.11-25.98-.07-51.97-.02-77.95,0-2.76-.51-5.75,2.05-7.89,.85-.19,1.8-.6,1.72-1.51-.58-6.11,4.12-9.16,7.07-13.45,3.74-5.42,6.62-.71,8.9,.28,5.61,2.42,7.77,1.34,9.71-4.63,2-6.16-.22-12.67,2.47-18.6,.05,51.35-.17,102.7,1.59,154.18v-16.02c2.34,6.84,.19,13.87,2.32,20.62-.28,3.58-.9,7.06-2.88,10.16Z"></path>
  <path class="cls-64" d="M66.9,175.21c-4.75,1.49-8.54,4.28-11.18,8.51-1.61,2.58-3.68,4.44-6.35,6.02-3.79,2.25-4.22,.37-4.41-2.7-.48-7.94,3.02-14.3,7.54-20.45,3.65-4.97,8.82-8.4,12.47-13.31,12.7-7.04,25.46-13.97,38.09-21.14,16.99-9.64,33.76-19.66,50.84-29.13,16.22-9,32.39-18.07,48.45-27.33,8.73-5.03,17.71-9.62,26.58-14.41,3.01-1.67,6.26-2.85,9.31-4.47,3.76-2,7.61-4.13,12.24-2.14,1.48,.63,3.35,.29,4.95-.04,10.19-2.11,19.16,1.89,27.67,6.27,11.68,6.01,23.63,11.45,35.18,17.72,20.42,11.09,40.56,22.73,61.17,33.44,16.6,8.62,32.79,17.99,49.77,25.94,10.9,5.1,21.61,10.97,31.3,18.3,16.46,12.46,24.18,28.77,22.3,49.7-1.35,15.06-1.29,30.23-2.25,45.34-1.11,17.41-2.7,34.75-5.72,51.96-1.29,7.36-1.62,14.86-1.67,22.35-.06,8.32-.82,16.61-1.52,24.89-.17,1.98-.36,5.15-3.9,2.51-.73-1.56-.82-3.21-.82-4.88-.02-24.41-.06-48.82,.02-73.22,0-1,.08-1.99,.25-2.96,1.44-4.48,1.15-9.13,1.48-13.76,.72-10.07-.14-20.27,2.15-30.22,.45-1.98,.37-3.97,.05-5.96-.35-2.17-.32-4.32,.48-6.4,4.91-12.84,4.03-25.26-1.86-37.69-4.72-9.96-13.25-15.58-22.03-21.05-12.73-7.93-26.18-14.42-39.65-21-11.14-5.45-22.14-11.48-33.16-17.25-12.81-6.71-25.02-14.52-38.22-20.51-8.77-3.98-16.72-9.61-25.49-13.55-8.78-3.94-16.7-9.71-26.1-12.31-3.55-.98-6.48-3.3-9.93-4.59-16.18-6.03-30.37-1.63-43.96,7.57-5.27,3.57-9.4,9.16-16.44,9.83-.83,.08-1.66,.51-2.16,1.18-4.43,5.87-10.84,9.27-16.64,13.43-1.36,.98-2.1,2.05-2.01,3.69-.69,2.57-2.98,3.42-4.98,4.54-21.58,12.03-43.07,24.21-64.63,36.26-1.44,.8-3.05,1.44-3.29,3.38-.12,2.92,2.2,1.96,3.53,2.01,4.65,.17,9.32,.29,13.96,.03,13.31-.75,23.52,4.94,31.42,15.12,11.1,14.31,21.88,28.86,32.91,43.23,8.39,10.94,16.84,21.84,25.09,32.88,5.12,6.85,7.86,8.26,17.65,10.89-1.45-.09-2.22-.77-1.84-2.37,.35-.59,.83-1.14,1.48-1.26,8.49-1.49,13.24-7.83,18.02-14.01,6.6-8.55,13.86-16.55,20.65-24.94,1.6-1.98,3.08-4.5,6.32-4.12,1.77,2.19,.11,3.69-1.11,5.22-2.59,3.25-5.49,6.24-7.74,8.92,7.85-8.48,15.05-18.35,22.6-27.93,2.7-3.42,5.5-5.32,10.42-5.37,5.32-.06,10.76-.72,15.66-4.8,4.7-3.9,11.21-5.55,16.49-9.04,1.02-.67,2.27-.6,2.91,.83-.54,3.41-3.8,4.75-5.51,7.27-14.15,16.5-28.09,33.17-41.93,49.94-13.17,15.53-26.23,31.15-39.37,46.7-1.29,1.53-2.54,3.05-4.24,4.14-3.43,5.2-8.09,9.23-12.71,13.28-4.1,3.59-5.85,3.43-9.47-.87-.89-1.05-1.86-1.87-3-2.55-1.41-.94-2.46-2.24-3.46-3.58-26.09-34.77-52.38-69.39-78.56-104.09-3.18-5.29-7.53-9.21-13.4-11.34-.46-.25-.89-.51-1.34-.77-20.43-.5-40.84-.36-61.24-.05-.49,.15-.98,.31-1.45,.51-2.67,.43-3.79,3.65-6.65,3.76Z"></path>
  <path class="cls-47" d="M465.91,439.19c-9.89,6.04-19.74,12.13-29.67,18.09-12.35,7.42-24.67,14.89-37.22,21.94-2.26,1.27-5.06,2.11-7.61,2.97-3.8,1.29-6.79,2.89-8.76,6.54-.87,1.61-2.93,2.55-4.8,1.48-4.42-2.55-6.51,.31-8.66,3.36-.94,1.34-1.77,4.21-3.46,.47-.36-.79-.94-1.56-1.86-.93-.4,.27-.5,1.14-.53,1.75-.3,5.36-1.94,6.32-6.57,3.85-1.16-.62-2.4-1.24-3.67-1.44-1.86-.28-4.36-.38-4.29-2.44,.07-1.84,.73-4.4,2.93-5.37,1.62-.71,3.09-1.26,3.17-3.32-.34-.82,.17-1.23,.77-1.6,3.25-1.19,7.04-1.46,8.81-5.19,15.87-11.92,33.47-21.05,50.36-31.34,11.08-6.75,22.3-13.27,33.25-20.22,5.02-3.19,10.14-6.4,13.32-11.75,5.46-6.6,7.52-14.51,8.95-22.72,2.13-12.28,3.83-24.61,5.14-37.01,2.07-19.5,3.04-39.08,4.1-58.63,.46-8.41,.24-17.05,1.12-25.35,1.16-10.95-.01-21.86,1.41-32.8,1.84-14.17,1.86-28.6,1.06-42.85-1.08-19.25-11.32-33.31-27.56-43.53-7.01-4.41-14.45-8.05-21.34-12.67-6.78-4.55-14.79-6.64-21.85-10.79-8.98-5.27-18.2-10.22-27.43-15.01-9.41-4.89-18.76-9.92-28.08-14.99-18.96-10.3-37.6-21.21-57.02-30.64-12.06-5.86-23.66-12.88-37-15.81-1.92-.42-3.88-1.1-5-3,7.07-2.28,14.18-1.24,20.95,.76,11.74,3.48,22.39,9.3,32.8,15.84,9.78,6.15,20.74,10.35,30.67,16.38,10.5,6.37,21.66,11.61,32.1,18.01,20.42,12.52,41.88,23.14,62.5,35.26,11.94,7.01,24.61,12.82,34.75,22.82,10.69,10.54,16.28,23.03,16.05,37.77-.21,13.21-.04,26.44-.36,39.66-.26,10.76-.45,21.67,.47,32.47,.26,3.06-.89,5.93-.89,8.89-.03,17.11,.14,34.21,.12,51.32-.02,23.24,.63,46.52-.49,69.72-.77,15.93-8.1,29.63-20.69,40.03Z"></path>
  <path class="cls-33" d="M257.92,50.26c9.84,2.3,19.16,5.74,28.26,10.33,10.82,5.45,21.62,10.97,32.45,16.41,11.73,5.9,22.77,12.99,34.43,18.98,10.64,5.46,21.08,11.3,31.59,16.97,11.35,6.12,22.77,12.14,33.94,18.58,3.53,2.04,7.58,2.48,11,4.57,13.08,8,27.38,14.33,38.46,25.16,6.52,6.37,12.09,13.49,14.33,23.19,3.48,15.05,1.85,29.99,1.96,45.05,.07,10.53-3.74,20.99-.55,31.53,.09,.31,.12,.7,.02,.99-3.32,9.25-1.67,19.01-2.38,28.47-.64,8.64-1.25,17.39-1.51,26.1-.31,10.36-1.06,20.61-2.41,30.94-1.15,8.84-1.94,17.97-2.26,27-.25,7.25-3.57,13.89-4,21.03-.38,6.28-2.99,11.66-5.61,17.11-.87,1.82-1.81,3.58-3.74,4.52-.82-.2-1.33-.7-1.47-1.55,1.39-4.89,4.96-9.01,5.01-14.37,2.9-12.97,.88-26.12,1.51-39.17,.13-2.75-.49-5.72,1.98-7.9,2.49-5.4,1.56-11.2,1.89-16.83,.6-10.32,.41-20.7,1.45-30.96,.54-5.36,1.58-10.89,2.91-16.05,2.31-8.95,.04-18.28,3.35-27.03,.83-2.19,.24-4.91,.34-7.38,.66-16.51,.61-33.1,2.25-49.52,1.19-11.98-1.03-22.66-6.64-32.94-4.14-7.58-10.46-13.26-17.46-17.89-8.39-5.55-17.1-10.77-26.15-15.15-9.19-4.45-18.37-8.93-27.39-13.7-20.29-10.75-40.68-21.34-60.58-32.78-19.68-11.31-40.14-21.09-60.19-31.66-5.11-2.69-10.68-4.88-16.29-6.11-4.2-.92-8.83,.04-13.26,.22-.82,.03-1.89,.75-2.39,.43-7.19-4.49-12.26,1.42-18.02,3.66-1.3,.51-2.51,.71-3.83,.75,8.89-5.69,18.14-10.45,28.99-11Z"></path>
  <path class="cls-35" d="M471.84,439.94c-.12,2.22,1.88,2.92,3.03,4.23-14.52,10.91-30.64,19.23-46.13,28.57-21.47,12.95-43.02,25.75-64.55,38.59-13.12,7.82-26.27,15.58-39.39,23.4-1.7,1.01-3.27,2.25-4.89,3.38-1.02,2.52-3.43,3.57-5.48,4.87-8.14,5.19-16.68,9.63-25.95,12.48-1.85,.57-3.83,1.45-5.58-.36-2.01-2.02-4.02,.08-6.02-.02-2.33-.11-4.81,.68-7.69-1.22,5.29-1.61,10.77,.07,14.63-3.86,24.83-8.16,45.43-24.12,67.65-37.03,32.4-18.82,64.36-38.39,96.39-57.84,3.05-1.85,6.84-2.72,9.04-5.91,5.67-1.99,9.88-6.32,14.94-9.29Z"></path>
  <path class="cls-26" d="M497,303.17c-.04,27.09-.19,54.17-.04,81.26,.05,8.65-.42,17.2-2.11,25.68-1.55,1.17-3.13,1.67-4.81,.22,1.91-6.57,2.82-13.3,2.83-20.12,.03-38.8,.01-77.59,.01-116.39,0-19.44,.21-38.88-.07-58.32-.19-13.34,1.22-26.83-2.79-39.94-.86-2.82,.74-5.55,.9-8.36,4.27,6.71,5.58,14.25,6.12,22-.02,26.34-.05,52.68-.08,79.02,.69,4,.67,8,.02,11.99,0,.33,0,.67,0,1,.45,4.33,1.14,8.66,0,13,0,2.98,.01,5.97,.02,8.95Z"></path>
  <path class="cls-27" d="M490.04,410.33c1.6-.07,3.21-.15,4.81-.22-1.38,5.56-3.7,10.71-6.1,15.93-2.02,4.39-4.78,5.46-8.93,5.11,4.83-6.24,7.9-13.34,10.23-20.81Z"></path>
  <path class="cls-38" d="M135.83,100.22c-.25-1.25,2.33-6.15,3.76-6.51,1.91-.48,4.21-1.55,5.32,1.39-2.69,2.3-5.94,3.62-9.08,5.13Z"></path>
  <path class="cls-38" d="M137.95,88.26c-.02,.16,0,.34-.07,.48-.84,1.87-1.48,4.71-3.93,4.07-2.42-.63-3.14-2.6,.29-3.51,.93-.25,1.89-.41,2.82-.65,.31-.08,.6-.26,.89-.39,0,0,0,0,0,0Z"></path>
  <path class="cls-32" d="M62.74,121.82c-1.49-1.66-2.33-3.05-.87-4.68,.63-.7,1.56-.78,2.17,0,1.42,1.8-.07,2.98-1.3,4.69Z"></path>
  <path class="cls-6" d="M496.98,294.22c0-4.33,0-8.67,0-13,1.03,4.33,2.58,8.66,0,13Z"></path>
  <path class="cls-6" d="M496.98,280.22c0-4-.01-8-.02-11.99,1.44,4,1.43,7.99,.02,11.99Z"></path>
  <path class="cls-50" d="M282.9,555.11c10.62-1.77,19.73-7.11,28.91-12.27,2.72-1.53,5.4-3.15,8.1-4.72,.15,1.79-.36,3.38-1.91,4.32-4.9,2.96-1.22,3.94,1.62,6.01-.8-5.64,1.31-4.59,4.22-2.92,3.38,1.93,6.98,3.79,11.17-.61-.6,4.54-1.34,7.72,2.43,9.3,.96,.4,1.43,1.34,.67,1.87-1.83,1.29-3.34,4.16-5.59,3.47-2.32-.71-2.93-.17-3.53,1.68-.14,.43-.63,1.17-.78,1.13-9.43-2.58-2.62,5.84-5.3,7.8,.39,2.17-1.39,2.86-2.69,3.7-12.04,7.69-24.35,14.78-38.42,18.29-2.95,.74-5.89,.71-8.81,1.2-17.9,1.82-34.3-2.83-49.7-11.63-40.75-23.28-81.1-47.24-121.53-71.06-22.65-13.35-45.43-26.47-67.9-40.14-13.31-8.09-22.45-19.56-28.65-33.62-.94-2.14-1.81-4.32-1.17-6.74-3.59-17.22-1.58-34.65-1.99-51.99,3.12-2.13,.56-5.29,1.41-7.8,1.72-5.07,2.5-10.17,1.56-15.53-1.03-5.91,.8-11.39,3.05-16.75,.23-.56,1-1.48,1.03-1.46,3.52,2.2,6.91-.49,10.34-.22,1.34,.11,1.73,1.38,2.25,2.43,1.63,3.29,4.38,6.09,3.74,10.29-.76,4.97,3.63,6.51,6.45,9.07,.02,11.83,.26,23.66,0,35.48-.55,26.12,11.62,44.73,33.55,57.67,40.98,24.19,81.99,48.35,123,72.49,14.34,8.44,28.48,17.26,43.17,25.06,16.12,8.56,33.43,10.48,51.3,6.23Z"></path>
  <path class="cls-6" d="M498.31,433.15c-1.62-.05-3.15-.5-3.16-2.38-.02-2.21,1.73-2.54,3.49-2.55,1.55-.01,3.17,.06,3.09,2.21-.08,2.11-1.56,2.71-3.42,2.72Z"></path>
  <path class="cls-51" d="M468.95,354.2c-.02,10.94-.16,21.88,0,32.82,.08,5.52-.69,10.85-2.07,16.15-3.61,6.24-5.98,13.26-11.47,18.32-8.77,7.55-18.97,12.95-28.81,18.84-36.15,21.63-72.25,43.34-108.53,64.74-7.17,4.23-14.41,8.35-21.6,12.54-20.66,12.02-41.63,11.35-61.73-.52-42.29-24.99-84.91-49.43-127.15-74.52-9.02-5.36-18.23-10.4-27.17-15.89-12.06-7.41-18.21-17.98-18.14-32.29,.13-26.98-.03-53.96,.11-80.94,.02-4.64-1.56-9.26-.13-13.9,.37-2.35,.38-4.7-.03-7.05-.79-5.97-.08-11.93,.25-17.89-.07-3.22,.3-6.45-.33-9.65-.63-10.9,.04-21.81-.06-32.71-.02-2.13-.05-4.35,1.8-5.96,.03-1.16-.04-2.33,.13-3.47,.26-1.69-1.04-4.29,1.03-4.88,2.2-.63,3.59,1.64,5,3.33,3.8,4.54,6.39,10.03,10.91,13.99,5.65,4.12,8.85,10.3,12.91,15.71,11.79,15.7,23.45,31.5,35.19,47.24,15.03,20.13,30,40.31,45.01,60.46,4.93,6.62,10.05,12.86,17.68,16.49,4.27,2.03,6.08,5.32,5.79,10.05-.22,3.65,.02,7.32-.1,10.99,.68,9.14,.25,18.28,.29,27.42,.08,18.95,.11,37.91-.04,56.86-.04,4.34,1.37,6.99,5.29,9.07,10.43,5.53,20.24,12.12,30.43,18.09,10.73,6.28,21.91,11.19,34.72,10.99,2.01-.03,3.98-.01,5.9-.58,7.85-1.01,14.92-3.98,21.39-8.47,2.44-1.7,5-3.19,7.69-4.44,2.34-1.69,1.03-4.15,1.27-6.26,.2-1.75,.07-3.53,.43-5.29,.66-2.46,.63-4.95,.63-7.46,0-43.49-.01-86.98,0-130.47,0-2.48-.31-5,.48-7.44,.75-1.47,1.86-1.53,3.17-.81,1.63,1.13,2.2,2.79,2.27,4.68,.33,2.14,.28,4.31,.28,6.47,0,43.94,0,87.88,0,131.82,0,1.33-.03,2.66,.01,3.99,.16,4.63,.8,4.99,4.93,2.53,29.6-17.62,59.16-35.31,88.73-52.99,12.71-7.6,25.42-15.21,38.1-22.85,5.62-3.38,9.42-8.87,15.24-12.01,1.74-.94,2.17-3.98,2.54-6.3,.62-3.06,1.43-6.06,2.13-9.1-.31-28.75-.09-57.5-.17-86.24-.11-36.91-.61-73.83-.21-110.74,.08-7.46-2.36-13.66-7.84-18.69-.79-4.52,2.19-4.65,5.34-4.61,6.01,3.01,7.8,8.75,9.15,14.61,2.07,8.99,1.29,18.17,1.17,27.27-.2,15.86-1.41,31.71-1.26,47.58,.02,2.47,.1,4.93-.55,7.34,0,28.01,0,56.02,0,84.02Z"></path>
  <path class="cls-48" d="M66.9,175.21c1.48-1.94,2.9-3.95,5.31-4.89,.66,.66,1.39,1.27,1.68,2.22,5.39,9.79,12.43,18.46,18.92,27.49,16.7,23.24,33.11,46.68,49.81,69.92,18.35,25.54,37.48,50.5,56.06,75.87,2.33,3.18,4.9,6.32,8.6,8.17,5.08,2.55,10.61,3.69,16.04,5.15,2.19,.59,4.64,.82,5.87,3.22-.78,2.73-3.28,2.72-5.25,2.76-4.41,.09-5.76,2.27-5.31,6.3,.16,1.46,.16,2.97-.11,4.46-.08,2.92,.62,5.86-.32,8.74-.62,1.4-.78,2.88-.78,4.39-.01,20.64-.02,41.28,0,61.93,0,1,.11,1.99,.47,2.93,2.43,4.06,6.64,5.94,10.46,8.19,16.73,9.86,33.73,19.24,50.28,29.4,.84,.52,1.62,1.23,2.71,.59,1.73-2.05,1.05-4.49,1.06-6.75,.04-37.11,.03-74.22,.03-111.33,0-1.83-.07-3.67,.07-5.49,.12-1.62,.03-4,2.03-3.96,1.71,.04,1.94,2.4,2.2,4.03,.26,1.65,.19,3.32,.19,4.98,0,38.11,0,76.22,0,114.33,0,2.33,.1,4.67-.49,6.95-.75,2.72-2.99,4.28-4.83,6.15-9.2,6.64-18.67,4.93-27.84,.31-11.31-5.71-21.89-12.67-31.24-21.3-5.81-5.37-8.83-12.02-10-20.06-1.89-12.97-.52-25.93-1.29-38.86-.62-10.44-.32-20.95-2.53-31.28-1.07-5-3.31-9.2-7.7-11.75-7.6-4.41-12.98-10.94-17.62-18.07-8.79-13.53-17.93-26.83-26.09-40.76-3.29-5.6-6.65-11.24-11.02-16.02-9.97-10.92-16.28-24.29-24.74-36.23-9.42-13.3-18.8-26.64-27.7-40.31-2.46-3.77-4.6-7.71-7.08-11.46-5.04-7.62-9.48-15.68-16.38-21.93-1.6-1.45-2.49-3.52-3.6-5.38-2.33-3.91-2.85-7.77,.17-11.59-.02-.34-.03-.68-.05-1.02Z"></path>
  <path class="cls-67" d="M66.95,176.23c-2.31,7.23,1.12,12.81,5.96,17.26,7.14,6.57,11.43,15.06,16.5,22.97,5.55,8.65,11.3,17.15,16.97,25.71,10.42,15.73,22.15,30.57,31.29,47.17,2.36,4.29,6.04,7.87,9.2,11.69,6.68,8.07,11.52,17.34,17.09,26.14,6.47,10.21,12.89,20.46,19.79,30.37,4.22,6.07,7.77,13.11,14.74,16.58,10.51,5.23,12.62,14.71,13.42,24.88,1.34,17.08,1.16,34.21,1.03,51.33-.13,17.87,8.86,30.05,23.71,38.74,4.27,2.5,8.33,5.34,12.55,7.92,10.06,6.15,20.41,9.6,31.74,3.19,1.41,2.08,.01,3.52-1.3,4.75-7.25,6.8-15.47,9.72-25.59,7.37-10.8-2.51-19.64-7.75-27.05-15.94-3.44-3.81-7.23-7.36-10.97-10.92-5.56-5.28-6.81-12.46-7.65-19.6-1.51-12.91-1.33-25.93-1.95-38.89-.56-11.73-4.95-21.82-10.45-31.73,1.83-10.72-1.12-18.29-11.89-23.32-7.53-3.51-10.98-12.2-16.04-18.71-10.98-14.13-21.67-28.49-32.33-42.88-9.38-12.65-18.48-25.51-27.83-38.18-8.37-11.34-16.89-22.57-25.38-33.83-.71-.94-1.48-1.8-1.53-3.05,3.34-2.08,1.37-4.74,0-6.31-6.59-7.55-10.32-16.82-15.75-25.03-3.2-4.84-4.25-10.13-4.66-15.44-.37-4.9,2.3-9.19,6.4-12.25Z"></path>
  <path class="cls-53" d="M63.88,300.27c-2.28,3.56,.17,7.11,.14,10.68-.22,27.98-.04,55.97-.16,83.95-.06,13.61,5.92,23.67,17.43,30.42,36.16,21.2,72.43,42.22,108.62,63.39,14.21,8.31,28.36,16.74,42.43,25.28,23.21,14.09,45.8,13.57,68.99-.83,28.67-17.79,58.04-34.44,87.01-51.75,19.84-11.85,39.52-23.97,59.24-36.03,2.54-1.55,4.86-3.48,7.28-5.23,2.37-.77,3.58-3.31,6.03-3.96,.34,.33,.68,.67,1.02,1-3.46,6.99-10.22,10.29-16.35,14.05-16.11,9.87-32.51,19.27-48.68,29.03-10.76,6.49-21.33,13.29-31.98,19.95-2.44,2.66-5.7,3.82-8.99,4.94-.33,.33-.67,.65-1,.98-9.34,4.02-17.51,10.11-26.35,15.02-11.32,6.28-22.32,13.15-33.62,19.46-21.11,11.79-41.96,9.39-62.15-2.25-33.13-19.1-66.06-38.54-99.07-57.83-18.23-10.65-36.59-21.1-54.65-32.03-12.26-7.42-18.92-18.82-18.98-33.12-.24-56.29-.1-112.59-.09-168.88,0-.8,.16-1.6,.25-2.44,2.13-.5,2.26,1.85,3.63,2.19,0,12.96,0,25.93,0,38.89-1.38,3.37-1.43,6.75,0,10.12,.2,5.62-.96,11.25,0,16.87-1.34,2.7-1.34,5.4,0,8.1Z"></path>
  <path class="cls-50" d="M31.87,346.17c0,.69,.01,1.37,.02,2.06-.2,.26-.41,.52-.6,.79-.95,1.35,.5,4.8-2.02,4.16-2.59-.65,.27-2.58,.54-3.96,.38-2.01-.76-3.51-1.35-5.21-.43-1.23-1.06-2.95,.72-3.34,2.07-.46,1.65,1.53,1.77,2.74,.1,1,.11,2,.92,2.76Z"></path>
  <path class="cls-28" d="M468.95,270.18c-.03-24.22,.02-48.43-.14-72.65-.05-7.34-1.33-14.51-6.11-20.52-.81-1.02-1.85-1.86-2.78-2.78-2.86-2.04-4.63-.11-6.26,1.84-5.1,6.09-10.64,11.84-15.58,18.04-6.92,8.7-14.94,16.4-21.79,25.14-1.49,1.9-3.07,3.97-5.79,4.41-3.68-1.45-2.6-3.98-1.43-6.48,2.46-5.28,6.75-9.42,9.32-14.59,3.72-7.49,7.05-15.19,7.39-23.76-1.24-2.31,.02-4.86-.73-7.21-.39-.3-.8-.54-1.27-.7-22.34-.31-44.65-.41-66.95,.07-.44,.24-.9,.48-1.32,.75-.62,.39-1.29,.69-1.98,.92-1.51,.49-2.96,1.56-4.63,.43-.27-.18-.69-.57-.79-.5-5.56,3.87-13.12,5.42-17.48,9.66-5.24,5.09-11.01,5.1-16.17,4.95-8.16-.23-10.63,5.91-13.65,10.34-3.36,4.94-7.74,8.79-11.38,13.35-3.54,4.44-6.8,9.37-12.39,13.04,2.62-6.23,8.01-9.41,11.13-14.34,.91-1.44,1.94-2.67,1.67-4.47-1.25-1.85,.03-3.18,1.06-4.41,12.15-14.51,24.02-29.27,36.62-43.4,1.72-1.94,3.73-4.54,7.14-2.83,.86,.05-.15,2.41,1.16,1.3,5.82-4.95,12.72-6.22,19.99-6.26,16.13-.08,32.25,.04,48.38-.09,2.3-.02,5.02,.97,6.81-1.53-.31-2.47-2.54-2.95-4.19-3.87-36.5-20.31-72.8-40.99-108.98-61.85-4.9-2.83-9.88-5.55-15.1-7.74-12.15-5.1-24.37-5.5-36.14,.82-15.39,8.27-30.5,17.05-45.76,25.56-2.39,1.34-4.62,3.45-7.78,2.49-2.08-2.01-.46-3.34,.98-4.45,6.01-4.61,12.2-8.86,17.85-14.1,3.74-3.47,10.21-4.39,14.8-8.5,1.7-1.52,3.67-3.75,6.11-5,9.16-4.69,18.69-7.04,29.04-8.01,8.12-.76,13.6,3.39,20.02,6.2,2.87,1.26,6.06,1.84,8.85,3.24,8.25,4.13,16.28,8.93,24.61,12.62,8.78,3.88,16.38,9.76,25.45,13.07,6.78,2.47,13.07,6.44,18.81,10.99,1.94,1.54,4.38,1.49,6.41,2.59,7.51,4.08,14.75,8.78,22.55,12.19,11.52,5.04,22.07,11.91,33.8,16.63,10.56,4.25,19.87,11.24,29.74,17.01,10.46,6.11,17.85,14.63,21.8,26.01,2.41,6.93,2.97,14.11,1.88,21.44-.57,3.86-.7,7.74-3,11.16-1.06,1.57-.77,3.41-.27,5.3,.78,2.93,.82,5.94-.69,8.75-1,1.86-.72,3.84-.77,5.84-.29,10.55-.72,21.1-1.16,31.65-.03,.75-.59,1.48-.9,2.23Z"></path>
  <path class="cls-12" d="M300.86,229.14c10.63-12.69,21.25-25.39,31.89-38.07,3.34-3.98,6.22-8.35,10.2-11.78,1.37-.68,2.34-1.84,3.34-2.93,1.51-1.65,3.14-2.41,5.25-1.19,2.26,1.3,4.48,.7,6.71-.11,18.87-.59,37.73-.24,56.58-.2,.54,.04,1.07,.17,1.57,.37,1.66,1.07,2.32,2.31,.74,4.03-18.17,19.91-34.66,41.24-52.15,61.74-7.27,9.2-14.82,18.18-22.46,27.08-1.28,1.5-2.57,3.05-4.62,3.59-2.51-.19-3.49-1.96-3.51-4.07-.03-2.98-1.53-5.39-2.45-8.04-.27-.79-.49-1.8-1.23-2.11-9.32-3.92-15-12.27-22.47-18.44-1.66-1.37-3.27-1.29-5.1-.64-1.07,.38-2.36,.93-3.16-.32-.73-1.14,.13-2.22,.7-3.2,1.34-2.31,3.25-4.18,5.11-6.26q-3.13,1.74-4.96,.54Z"></path>
  <path class="cls-42" d="M300.86,229.14c3.19,0,5.09-3.09,9.2-3.56-2.76,4.8-7.54,7.38-9.18,12.08,6.29-2.89,7.13-2.53,14.09,5.66,2.22,2.61,4.45,5.27,8.31,5.34,1.17,.02,1.3,.6,1.11,1.6-.72,3.93,1.41,5.16,4.85,4.72,2.32-.3,3.43,.52,3.75,2.78,.53,3.73,4.23,6.6,2.81,10.96-.3,.91,.97,2.02,2.11,2.53,.73,2.18-.96,3.35-2.03,4.73-11.64,14.89-23.7,29.43-36.14,43.65-1.31,1.5-2.54,3.11-4.76,3.3-2.65-.32-3.74-2.54-5.16-4.31-8.06-10.09-15.74-20.48-23.36-30.91-2.48-3.39-5.1-5.96-9.49-6.13-.26-.28-.34-.55-.23-.81,.1-.26,.2-.39,.29-.39,11.87-13.94,23.74-27.89,35.62-41.82,2.7-3.16,5.46-6.27,8.19-9.4Z"></path>
  <path class="cls-30" d="M193.05,103.32c17.51-9.78,34.93-19.72,52.56-29.29,14.39-7.81,28.97-6.41,42.79,1.32,36.37,20.33,72.54,41.03,108.79,61.58,4.77,2.7,9.57,5.35,14.32,8.08,.85,.49,2.58,.66,1.31,2.39-2.18,2.04-4.92,1.75-7.55,1.76-15.27,.04-30.55,.14-45.82-.04-7.44-.09-14.53,.93-21.17,4.42-1.33,.7-2.73,1.25-4.29,.78-7.88,4.52-12.39,12.35-18.19,18.85-8.49,9.52-16.43,19.54-24.56,29.37-.61,.74-.93,1.72-1.39,2.58-9.17,9.06-16.93,19.33-25.06,29.29-5.61,6.88-10.61,14.69-20.96,14.96-2.34,1.67-4.49,.48-6.54-.57-3.93-2.01-6.98-5.1-9.59-8.6-18.4-24.7-37.51-48.86-55.82-73.62-8.66-11.71-19.82-18.53-34.88-17.77-3.82,.19-7.66,.1-11.49,0-1.95-.05-4.07,.26-5.5-1.63-1.16-1.65-.57-2.54,1.1-3.47,22.63-12.56,45.23-25.17,67.83-37.78,1.42-.79,3.28-.89,4.1-2.61Z"></path>
  <path class="cls-31" d="M257.05,280.36c-.06,.23-.05,.46,.02,.69,6.77,5.5,11.13,13,16.34,19.78,5.24,6.83,10.42,13.72,15.63,20.58,1.49,1.97,3.18,3.82,5.46,4.96,2.32,.12,3.63-1.5,4.88-3.01,19.17-23.15,38.57-46.11,57.55-69.43,1.56-1.96,3.65-3.48,4.85-5.76,.24-.41,.52-.78,.83-1.13,12.37-14.54,24.08-29.64,36.49-44.14,2-2.34,3.48-5.34,6.87-6.15,3.22,2.17,.66,3.99-.51,5.65-4.95,7.04-10.88,13.37-15.86,20.29-11.57,16.07-24.26,31.22-36.51,46.73-12.26,15.53-24.85,30.81-37.07,46.37-5.24,6.67-11.02,12.92-15.91,19.85-3.31,4.68-7.51,7.93-12.75,9.98-3.16,1.24-6.34,2.34-5.86,6.75,.07,.65-.73,1.04-1.43,1.16-1.45-.31-2.15-1.46-2.9-2.55-12.92-18.73-27.57-36.17-40.75-54.71-1.29-1.81-3.39-3.35-2.48-6.08,2.74-.57,2.71,2.16,3.94,3.36,1.31,1.28,2.65,3.15,4.47,1.36,4.77-4.72,10.98-8.11,13.83-14.65,.04-.1,.3-.15,.45-.13,.15,.02,.28,.16,.42,.24Z"></path>
  <path class="cls-54" d="M233.94,290.18c12.47,16.59,24.89,33.21,37.43,49.75,3.21,4.23,6.42,8.41,8.75,13.21,3.59,2.27,4.38,5.92,3.83,9.61-.42,2.83-.51,5.62-.52,8.43-.02,39.48,0,78.96-.09,118.44,0,1.41,1.56,3.98-1.73,4.27-.45-.47-.77-1.02-.97-1.64-.49-10.31-.19-20.63-.2-30.94-.05-29.96-.03-59.92,0-89.88,0-3.01-.09-5.98-1.06-8.87,1.01,3.02,1.06,6.12,1.05,9.25-.03,36.12,0,72.23-.04,108.35,0,2.27,.61,4.7-1.03,6.75-1.02,.89-1.75,.19-2.49-.45-1.86-2.21-1.92-4.9-1.93-7.57-.04-31.13-.14-62.27,.06-93.4,.05-8.3,1.07-16.59-.58-24.83-1.92-9.58-8.7-16.23-14.35-23.56-11.84-14.77-22.96-30.1-34.4-45.17-14.88-19.59-29.84-39.12-44.29-59.02-10.94-15.06-22.41-29.73-33.31-44.81-2.45-3.38-5.38-6.33-7.89-9.65-1.56-1.57-3.59-1.69-5.59-1.7-16.16-.04-32.32-.02-48.48-.03-1.53,0-2.96,.45-4.44,.68-.9,.14-1.81,.13-2.71-.04-2.32-1.25-5.5-2-3.53-5.85,2.03-1.07,4.23-.72,6.37-.72,16.31-.03,32.62,.09,48.92-.06,8.1-.07,14.57,2.62,19.03,9.57,.55,.85,1.3,1.51,2.23,1.93,19.88,26.2,39.76,52.4,59.65,78.6,7.43,9.79,14.86,19.57,22.29,29.36Z"></path>
  <path class="cls-25" d="M120.01,147.19c5.99,.05,11.98,.35,17.96,.12,14.99-.58,26.08,6.15,34.84,17.77,18.89,25.06,37.85,50.06,56.84,75.05,3.6,4.73,7.95,8.49,14.19,9.26,.62,2.78,3.52,1.03,4.94,2.42-9.96,2.41-16.74-2.54-22.23-9.73-19.43-25.45-38.6-51.1-58.1-76.49-7.11-9.26-16.39-14.87-28.66-14.38-6.15,.25-12.31,.03-18.47,0-1.29,0-2.81,.19-3.18-1.61-.31-1.47,.58-2.12,1.88-2.39Z"></path>
  <path class="cls-43" d="M357.29,176.8c-2.12,.84-4.14,2.14-6.27-.29-1.37-1.57-2.84-.79-4.31,.46-1.09,.92-1.49,3.25-3.76,2.32,1.99-2.06,3.97-4.12,5.96-6.18,1.39-.54,2.79-1.08,4.18-1.62,22.56-1.32,45.12-.89,67.69-.29,1.9,3.27,1.13,4.31-3.82,5.17l-.26-.4c-18.92-.54-37.84-.09-56.76-.24-1.04,0-1.98,.17-2.64,1.06Z"></path>
  <path class="cls-13" d="M152.01,182.22c-2.2,1.16-2.36-1.1-3-2.02-3.92-5.62-9.04-8.12-16.04-8-19.4,.35-38.8,.25-58.2,.32-.67,.36-1.28,.33-1.82-.25-.9-.41-.81-1.19-.73-1.96,.29,.13,.54,.1,.78-.12,.62-.24,1.24-.26,1.87-.06,18.95,.25,37.9,.02,56.85,.12,2.13,.01,4.35-.43,6.33,.8,7.07,.7,10.28,6.22,13.97,11.16Z"></path>
  <path class="cls-16" d="M73.83,170.46c-.3-.02-.58-.11-.84-.26,1.01-1.19,2.4-.94,3.7-.94,19.55,0,39.1,0,58.65,.07,.83,0,2.37-.95,2.51,1.04-5.43,.86-10.9,.37-16.34,.34-15.89-.07-31.79,.41-47.68-.25Z"></path>
  <path class="cls-1" d="M73.83,170.46c21.34-.03,42.68-.07,64.01-.1,.06,.24,.13,.47,.2,.71-20.47,.03-40.94,.07-61.4,.1-.98,0-2.02,.09-2.81-.71Z"></path>
  <path class="cls-34" d="M355.91,485.17c2.86-1.89,5.47-4.24,8.99-4.94-1.33,4.68-5.15,4.82-8.99,4.94Z"></path>
  <path class="cls-47" d="M460.9,416.2c-1.45,2.18-2.97,4.24-6.03,3.96,5.62-4.52,6.99-12.04,12.01-16.99-.96,4.82-3.27,9.02-5.98,13.03Z"></path>
  <path class="cls-4" d="M68.28,225.69c7.16,9.71,14.3,19.44,21.48,29.14,21.62,29.2,43.34,58.33,64.83,87.63,7.17,9.77,14.25,19.59,22.01,28.89,3.14,3.77,7.15,6.59,11.42,8.74,3.29,1.65,3.97,3.83,3.97,7.14-.07,30.97-.06,61.95,.03,92.92,.01,3.77-.03,5.25-4.33,2.66-17.05-10.25-34.34-20.08-51.52-30.11-17.07-9.97-34.11-19.97-51.15-29.99-11.09-6.52-17.82-15.33-17.19-29.11,.61-13.29,.12-26.64,.12-39.96,0-18.53,0-37.06,0-55.59,0-20.78,.03-41.55-.03-62.33,0-3.24-.43-6.47-.65-9.71,.34-.11,.68-.21,1.02-.32Z"></path>
  <path class="cls-18" d="M310,352.18c-.35-1.32-.69-2.65-1.04-3.97,.28-2.88,2.38-4.68,4.08-6.69,16.02-18.93,32.32-37.64,48.24-56.65,1.59-1.89,2.89-4.17,5.79-4.31,3.34,.76,4.84-1.89,6.43-3.83,8.87-10.83,18.55-20.95,27.41-31.78,1.05-1.29,2.17-2.53,3.25-3.79,1.98-2.32,4.24-3.73,7.44-2.65,2.26,.77,3.69,2.26,4.05,4.62,.54,3.47-1.6,5.3-4.78,6.71q11.38,.28,15.07,9.78c.65-2.81,1.99-4.52,4.06-5.57,2.51-1.27,4.38-.04,6.32,2.04-.76-2.65-4.7-4.85-2.11-6.69,3.07-2.19,4.6,1.73,6.29,3.81q2.06-2.78,11.56,.63c.02-1.31-1.19-2.71,.13-3.82,1.19-1,2.51-.6,3.77-.08,4.25,1.74,6.54,4.6,6.58,9.51,.15,17.28,.41,34.55,.58,51.82,.17,17.46-.24,34.92,.01,52.38,.13,8.8,.73,17.62,.27,26.43-.09,1.8-.34,3.72,1.37,5.07-.64,2.68-1.28,5.36-1.92,8.04-.81,1.25-1.67,2.47-2.39,3.79-1.57,2.87-3.46,4.21-5.98,.88-1.59,1.51-3.52,5-5.43,2.6-3.98-4.98-10.4-2.85-14.65-6.26-.49-.39-1.16-1.02-1.56-.06-1.32,3.23-3.87,2.37-6.35,2.15-2.62-.23-4.46-.75-5.75-3.7-.51-1.18-4.44-1.64-6.83-.41-1.51,.78-3.12,1.72-4.72,1.13-3.78-1.39-7.13-1.63-10.38,1.41-1.09,1.02-2.91,.31-4.11-.75-2-1.77-3.84-3.65-4.86-6.23-1.87-4.77-3.65-5.94-8.46-5.14-2.86,.47-4.48,.13-3.22-3.17,1.07-2.8,.09-3.56-2.69-4.31-4.91-1.31-9.78-1.52-14.79-1.47-4.85,.05-5.43-.74-4.64-5.42,.55-3.27-1.8-4.41-3.89-5.58-2.1-1.17-3.56-.27-4.84,1.84-2.44,4.02-3.69,3.91-6.03-.24-.91-1.62-1.89-3.11-3.33-4.29-1.59-1.3-3.07-2.67-1.91-5.06,1.21-2.49,3.22-2.51,4.68-2.04-3.13-4.49-8.51-5.73-14.19-6.59-2.82-.43-3.39-2.8-3.01-5.42,.31-2.15,1.34-4.13,1.48-6.3,.07-1.17,0-2.56-1.09-3.15-1.3-.7-2.07,.63-2.85,1.41-2.37,2.35-4.19,5.15-6.21,7.79-1.21,1.58-2.47,3.41-4.85,1.57Z"></path>
  <path class="cls-61" d="M310,352.18c2.03,.27,2.85-1.08,3.79-2.57,2.3-3.66,5.02-7,8.18-9.98,1.99-1.87,2.82-2.78,4.15,.93,1.42,3.96-.04,7.02-1.11,10.3-1.06,3.27,.29,3.84,3.19,4.46,4.1,.88,9.59-.8,11.51,5.26,.18,.56,2.13,.46,3.19,.86,1.69,.63,2.42,1.92,1.39,3.52-.85,1.31-2.22,1.59-3.29,.16-1.39-1.85-2.41-1.82-3.76,.11-1.4,2.02-.03,2.58,1.35,3.31,2.33,1.24,3.81,3.14,4.32,5.75,.19,.98,.34,2.21,1.59,2.11,1.2-.09,1.29-1.34,1.42-2.33,.52-4.02,2.44-4.49,6.17-3.3,2.45,.79,3.51,2.79,5.41,3.99,2.87,1.82,.29,3.59-.74,5.35-.99,1.69,.34,2.01,1.6,2.05,2.16,.07,4.45,.48,6.46-.08,4.91-1.35,9.28,1.35,13.86,1.88,3.85,.44,2.21,4.89-.19,8.08,3.57-4.6,6.9,.04,10.28-.46,1.64-.24,1.45,1.33,1.72,2.45,.49,2.06,.58,4.2,2.2,5.96,4.93,5.37,6.01,5.32,9.88-.99,3.76,1.84,7.38,5.83,11.56,.53,.56-.72,2-.33,2.77,.36,2.37,2.12,4.17,.97,5.65-1.25,1.85,2.15-1.93,4.39,.42,5.64,2.04,1.09,4.65,.18,7.09,1.05,1.89,.68,1.48-1.47,1.18-2.75-.26-1.14,.06-1.99,1.31-2.2,.88-.15,1.68,.11,2.08,.97,2.13,4.58,6.31,3.85,10.02,3.53,1.64-.14,2.62-.15,3.06,1.37,.55,1.91,.61,4.47,3.53,3.51,2.51-.83,1.23-2.98,.92-4.7-.07-.4,.28-.87,.42-1.25,.29-.05,.58-.14,.6-.09,3.63,7.21,6.66,3.09,9.71-.51-2.25,9.53-10.54,13.91-17.54,18.43-20.08,12.96-40.85,24.85-61.36,37.14-22.52,13.49-45.05,26.95-67.58,40.41-.71,.42-1.55,.63-2.22,1.1-3.53,2.47-4.29,1.13-4.28-2.64,.1-48.48,.09-96.97,.11-145.45Z"></path>
  <path class="cls-57" d="M281.82,493.22c2.13-.35,1-2.02,1.01-2.97,.18-40.2,.27-80.4,.4-120.61,.02-5.72-1.14-11.18-3.1-16.51-1.58-6.35,2.88-7.9,7.45-9.22,7.74-2.25,11.12-9.17,15.65-14.72,18-22.06,35.92-44.18,53.59-66.51,8.12-10.26,15.97-20.72,24.51-30.65,3.06-3.56,4.57-8.31,7.78-11.89,.44-.49,.63-1.29,1.15-1.6,7.21-4.24,9.33-12.67,15.02-18.15,.89-.85,2.27-1.83,.53-3.21-.48-1.5,.39-2.58,1.2-3.6,5.49-6.89,11.08-13.7,16.75-20.44,.86-1.03,1.86-1.93,3.36-1.84,1,2.35-2.08,4.58-.19,6.95-.64,4.92-3.07,9.05-6.04,12.83-13.06,16.64-26.12,33.34-38.22,50.64-13.44,19.22-27.66,37.92-40.2,57.77-3.85,6.1-9.7,10.55-13.14,16.86-2.31,4.23-6.03,7.56-7.54,12.26-3.81,7.11-10.14,12.21-14.8,18.65-.03,47.24-.05,94.48-.12,141.71,0,2.1,.64,4.35-.88,6.26-2.24-1.76-1.52-4.26-1.52-6.5-.04-43.78-.03-87.55-.03-131.33,0,47.47,0,94.95,0,142.42,0,2.16,.21,4.34-.44,6.45-7.38,3.99-13.94,9.53-22.23,11.84-2.25,.63-4.46,1.26-6.81,1.07-1.18,.87-2.54,.42-3.81,.44-1.06,.02-1.93-.47-2.24-1.55-.26-.91,.3-1.63,.97-2.09,7.21-4.94,10.21-13.08,15.07-19.8v-131.51c-1.43,2.31-.88,3.96-.89,5.51-.07,39.93-.07,79.87-.2,119.8,0,2.11,1.68,6.81-3.88,4.17,.35-.86,.84-1.43,1.87-.93Z"></path>
  <path class="cls-11" d="M464.78,395.16c-2.63,.17-2.94-1.51-2.89-3.56,.41-15.44-1.02-30.84-.17-46.31,.65-11.96-.55-24.01-.19-36,.26-8.65,.05-17.31,.04-25.94-.01-9.05-.05-18.18-.89-27.21-.37-3.98-4.81-4.14-7.67-5.89-1.12,3.1,3.64,4.39,2.03,6.26-2.4,2.77-3.15-2.63-6.05-2.13-1.84,.32-4.08-1.73-6.22-2.75-1.14,1.92,1.2,3.96-.51,5.78-3.94-1.03-3.11-6.93-8.11-7.87,1.38,2.94,3.75,4.76,4.2,7.56,.15,.96,.83,2.06-.4,2.58-1.01,.42-2.09-.26-2.52-1.14-.98-2.01-1.27-4.92-4.63-3.51-3.41,1.43-3.33,4.23-1.79,7.58-4.17-1.38-6.74-3.01-6.22-7.49,.27-2.3-.3-3.28-3.73-3.16-2.9,.1-6.46,1.03-9.53-.65-1.03-.57-2.41-.83-2.18-2.28,.23-1.46,1.41-1.65,2.71-1.22,2.65,.89,3.8-.82,4.28-2.87,.43-1.82-.04-3.77-1.99-4.61-1.9-.82-3.79-1.91-5.79,.43-9.78,11.49-19.69,22.87-29.58,34.26-2.07,2.38-4.41,4.53-6.33,7.01-2.08,2.68-2.74,.45-3.77-.82-.77-2.61,1.29-4.01,2.61-5.54,24.18-27.95,47.96-56.26,72.31-84.06,4.24-4.84,7.64-10.49,13.08-14.24,2.1-.47,3.63,.56,4.7,2.13,2.83,4.16,5.31,8.54,5.31,13.76-.02,67.3-.08,134.59-.14,201.89Z"></path>
  <path class="cls-62" d="M284.92,496.17c-3.66,8.11-6.51,16.79-15.28,21.6,1.37,2.14,3.54,1.09,5.3,1.41-8.64,2.39-17.13,1.19-25.3-1.77-11.95-4.32-22.53-11.27-33.18-18.09-5.45-3.49-11-6.95-16.89-9.57-3.47-1.55-3.66-3.66-3.66-6.62,.04-29.31,.04-58.62,.05-87.92,1.19,0,2.43,.01,3.02,1.28,2.04,4.35,4.52,8.57,5.94,13.12,4.06,12.95,3.73,26.41,4.12,39.81,.24,8.55,.24,17.21,2.85,25.54,1.25,3.99,2.91,7.45,6.36,10.32,4.82,4.01,8.89,8.92,13.39,13.32,9.18,8.99,20.2,13.85,33.07,12.36,6.77-.78,13.05-3.83,16.21-10.79,.98-1.69,2.31-3.02,4-4Z"></path>
  <path class="cls-63" d="M454.91,177.39c-2.69,5.84-7.6,9.98-11.62,14.75-17.74,21.06-35.73,41.9-53.66,62.8-7.54,8.79-15.15,17.52-22.73,26.28-5.09,4.08-8.37,9.75-12.64,14.55-9.77,10.98-19.2,22.26-28.79,33.4-5.48,6.37-11.01,12.7-16.52,19.04-.66-.32-1.33-.64-1.99-.96,.09-4.03,3.25-6.22,5.43-8.96,2.75-3.44,5.65-6.76,8.48-10.13,3.63-7.1,9.21-12.76,14.14-18.87,12.83-15.88,26.73-30.84,39.96-46.39,10.32-12.14,20.9-24.06,31.1-36.3,1.3-1.56,2.76-2.87,4.79-3.39,12.41-14.22,24.82-28.43,37.23-42.65,1.96-2.24,3.92-4.49,5.8-6.79,2.28-2.79,4.26-2.88,6.02,.46-2.08,.41-4.04,.99-5.01,3.16Z"></path>
  <path class="cls-23" d="M303.98,506.27c-1.43-1.33-1.04-3.08-1.04-4.7-.02-49.46-.03-98.92,0-148.38,0-1.4-.54-2.98,1.05-4.49,2.53,1.93,1.93,4.68,1.93,7.15,.02,44.3,0,88.6,0,132.89,0,2.16,.04,4.33,.06,6.49,0,3.11-.05,6.22,0,9.32,.02,1.45-.38,2.24-1.99,1.72Z"></path>
  <path class="cls-34" d="M63.88,275.29c-3.12-3.38-2.77-6.75,0-10.12,0,3.37,0,6.75,0,10.12Z"></path>
  <path class="cls-34" d="M63.88,300.27c-2.83-2.7-2.83-5.4,0-8.1,0,2.7,0,5.4,0,8.1Z"></path>
  <path class="cls-56" d="M72.94,172.28c.61,.08,1.22,.16,1.82,.25,1.01,1.69,2.64,2.68,4.23,3.7,2.14,1.06,3.54,2.82,4.96,4.7,6.38,8.44,12.13,17.35,18.89,25.51,6.56,8.57,12.94,17.27,19.02,26.19,1.96,3.55,4.08,6.99,6.92,9.92,1.99,2.74,4.13,5.38,6.01,8.2,1.47,2.55,3.07,5,5.23,7.05,20.39,28.19,41.24,56.03,62.2,83.8,1.3,1.73,2.77,3.35,3.26,5.55,.3,2.64,2.41,5.19,.43,7.95-8.63-6.33-13.64-15.71-19.89-23.99-15.86-21-31.49-42.19-46.96-63.48-13.52-18.62-26.68-37.5-40.03-56.24-8.05-11.31-16.19-22.57-24.19-33.92-1.04-1.47-3.05-2.81-1.89-5.17Z"></path>
  <path class="cls-22" d="M216.85,384.22c.05-2.97,.09-5.93,.14-8.9,8.76-.66,17.52-.39,26.26,.32,3.04,1.65,3.48,4.86,3.87,7.65,.69,4.91,.34,9.92,.16,14.88-.04,1.19-.36,2.53-1.56,2.89-1.53,.45-2.32-.85-3.03-2-.35-.57-.08,.18-.2-.45-1.05-5.44-4.37-7.43-9.68-6.53-4.43,.75-8.93,1.23-10.91,6.32-.59,1.51-1.75,3.25-3.65,2.73-1.78-.49-1.24-2.47-1.29-3.89-.14-3.8,.16-7.62-.18-11.42-.21-.55-.19-1.08,.08-1.6Z"></path>
  <path class="cls-17" d="M281.82,493.22c-.62,.31-1.24,.62-1.87,.93-16.66-10.6-34.03-20-51.05-29.99-4.15-2.43-8.26-4.91-11.98-7.98-.73-.91-.47-1.92-.3-2.92,2.59-2.27,4.69-.22,6.75,.92,8.29,4.58,16.39,9.51,24.88,13.72,8.64,4.67,16.85,10.08,25.43,14.87,1.63,.91,2.82,2.3,4.08,3.61,.38,.32,.77,.64,1.15,.96,2.37,.79,2.05,3.2,2.93,4.89,.07,.33,.06,.66-.02,.99Z"></path>
  <path class="cls-67" d="M242.99,376.19c-.86,.96-2.01,1.08-3.17,1-6.17-.42-12.35-1.06-18.52,0-1.84,.32-3.11-.72-4.31-1.88,.08-3.64-1.03-8.06,.66-10.67,1.17-1.8,6.2-1.06,9.5-1.53,.61-.09,1.17-.53,1.76-.81,3.46-1.28,5.46,1.25,7.68,3.02,1.53,1.22,2.87,2.68,4.17,4.16,1.28,2.05,3.22,3.89,2.23,6.7Z"></path>
  <path class="cls-22" d="M239.92,370.21c-3.6-2.73-6.37-6.63-11.01-7.91-7.65-2.46-15.84-3.19-23.01-7.22-.63-2.71-1.26-5.42-1.89-8.13,9.46,4.86,20.14,6.26,29.82,10.47,4.85,2.11,8.44,5.79,11.42,10.09,1.7,3.22,3.5,6.41,2.72,10.28-1.37,2.36-2.05,1.74-3.07-.42-1.24-2.62-1.16-6.29-4.97-7.17Z"></path>
  <path class="cls-67" d="M216.97,453.16c-.02,1.01-.03,2.01-.05,3.02-1.25-1.2-.97-2.76-.97-4.23-.01-21.15-.01-42.31,0-63.46,0-1.47-.29-3.03,.9-4.27,.06,.36,.12,.72,.18,1.09,.09,.66,.12-.2,.18,.46,1.67,20.44,2.11,40.91,1.71,61.41-.04,2.19-.28,4.32-1.95,5.98Z"></path>
  <path class="cls-20" d="M410.87,223.21c-10.99,12.85-21.98,25.71-32.97,38.56-9.48,11.09-18.96,22.18-28.46,33.25-9.5,11.07-19.03,22.11-28.55,33.16-.2-.42-.68-1.11-.56-1.23,5.8-6.13,7.91-14.97,15.08-20.17,2.18-1.58,3.55-4.42,4.82-6.75,6.85-12.6,16.17-23.49,24.26-35.19,15.14-21.92,30.68-43.6,47.48-64.33,5.62-6.94,10.88-14.22,14.95-22.26,.92,.71,.99,1.63,.69,2.67-2.25,7.98-3.64,16.24-8.5,23.3-3.14,4.58-5.86,9.45-8.93,14.08-1.34,2.02-1.72,3.57,.69,4.91Z"></path>
  <path class="cls-15" d="M427.1,171.3c-7.11,8.63-14.22,17.25-21.32,25.88-13.53,16.4-27.05,32.8-40.6,49.19-.62,.75-1.46,1.33-2.19,1.99-2.24-3,2.52-5.2,.93-8.12,14.05-16.88,28.11-33.76,42.16-50.65,3.65-4.38,7.25-8.8,10.88-13.21,1.68-1.33,3.36-2.67,5.04-4-1.45-1.25-3.18-.59-4.75-.6-19.04-.05-38.07-.02-57.11-.07-1.75,0-3.64,.63-5.28-.6,.08-.24,.14-.48,.19-.72,.79-.84,1.83-.63,2.8-.63,22.36,0,44.72-.01,67.08,0,.67,0,1.32,.08,1.95,.31,.08,.41,.15,.82,.23,1.23Z"></path>
  <path class="cls-45" d="M333.99,154.33c6.74-4.69,14.18-7.09,22.43-7.05,18.8,.08,37.6,.08,56.4,.12,.31,4.21-2.65,3.84-5.36,3.84-14.64,0-29.27,.21-43.9-.08-11.48-.23-22.56,.32-31.74,9.48-.04-3.04,3.71-3.64,2.17-6.3Z"></path>
  <path class="cls-49" d="M426.87,170.06c-23.95,.11-47.89,.22-71.84,.32-.21-1.88,1.27-1.1,1.96-1.1,22.19-.05,44.39-.04,66.58-.04,1.16,0,2.34-.04,3.29,.81Z"></path>
  <path class="cls-19" d="M354.85,171.11c21.43,.03,42.86,.05,64.29,.12,1.26,0,2.63-.56,3.81,.39,.04,.03,0,.28-.08,.33-.28,.17-.59,.29-.88,.43-21.04-.05-42.08-.08-63.11-.17-1.94,0-3.99,.58-5.79-.71,.59-.13,1.18-.26,1.76-.38Z"></path>
  <path class="cls-55" d="M363.92,240.24c1.93,1.08,2.52,2.5,1,4.35-.92,1.12-2.12,2.09-1.93,3.77,0,0,.02-.11,.02-.11-1.5,2.21-3.86,3.71-5.06,6.16-4.17,7.38-10.37,13.17-15.63,19.67-13.9,17.18-28.3,33.96-42.44,50.96-1.57,1.89-3.08,3.47-5.77,3.03-.92-2.05-1.1-4.02,.69-5.75,6.55-6.32,12.25-13.38,17.99-20.41,8.37-10.23,16.75-20.45,25.13-30.67,8.66-10.33,17.33-20.66,25.99-30.99Z"></path>
  <path class="cls-44" d="M357.29,176.8c.34-1.98,1.92-1.51,3.15-1.52,17.98-.04,35.97-.05,53.95-.02,.77,0,1.54,.47,2.31,.71-17.18,.06-34.37,.11-51.55,.21-2.63,.01-5.3-.34-7.86,.61Z"></path>
  <path class="cls-52" d="M294.8,322.31c.32,1.98,.41,3.94-.69,5.75-5.36-2.87-8.03-8.2-11.49-12.76-8.61-11.34-17.04-22.82-25.55-34.25,3.73-1.38,6.1-.38,8.61,3.05,9.46,12.92,19.38,25.5,29.12,38.21Z"></path>
  <path class="cls-41" d="M391.97,143.12c-11,.04-22.01,.5-32.98,.03-16.9-.74-29.39,7-39.56,19.45-14.39,17.61-28.87,35.13-43.65,52.41-7.12,8.32-13.66,17.11-21.05,25.23-5.38,5.9-12.13,6.65-18.12,1.12-6.66-6.14-11.35-13.88-16.82-20.97-13.59-17.62-27.09-35.31-40.31-53.21-5.99-8.11-12.15-15.85-21.44-20.35-7.89-3.83-16.37-3.96-25.86-3.43,5.5-4.72,11.41-6.96,16.76-10.02,32.34-18.51,64.79-36.84,97.24-55.18,2.13-1.2,4.21-2.75,6.85-2.8,1.05,1.62-.25,2.39-1.18,3.33,1.59-1.56,3.55-2.45,5.7-2.65,8.86-.83,17.61-1.06,25.76,3.59,19.81,11.3,39.58,22.66,59.43,33.91,14.77,8.37,29.36,17.06,44.32,25.11,1.92,1.03,4.54,1.56,4.9,4.43Z"></path>
  <path class="cls-8" d="M391.97,143.12c-22.83-12.91-45.68-25.81-68.5-38.75-13.29-7.54-26.48-15.26-39.84-22.69-10.66-5.93-21.74-6.37-32.99-1.53-.86,.37-1.82,.51-3.4,.94,1.72-2.78,5.52-2.5,5.79-5.69,11.71-3.75,22.84-2.54,33.55,3.57,36.48,20.79,73,41.5,109.5,62.24,.69,.39,1.35,.84,3.04,1.9h-7.15Z"></path>
  <path class="cls-15" d="M357.95,254.4c.38-3.13,2.71-4.65,5.06-6.16-.95,2.66-2.99,4.42-5.06,6.16Z"></path>
  <path class="cls-29" d="M101.93,207.44c-8.18-10.01-15.69-20.52-22.93-31.22,.74-.05,1.48-.1,2.23-.15,16.88-.75,33.77-.12,50.66-.32,1.66-.02,3.31-.04,4.97,0,2.08,.06,3.9,.67,5.06,2.56,12.26,14.63,23.51,30.07,34.74,45.47,13.5,18.51,27.38,36.72,41.19,55,12.82,16.97,25.43,34.1,38.16,51.15,1.58,2.12,3.31,4.14,4.96,6.21-1.64,3.51-3.51,.98-4.66-.15-3.32-3.24-6.02-7.07-8.69-10.85-2.64-3.74-4.94-7.56-10.54-6.1-1.12,.29-2.42-.24-3.24-1.04-5.32-5.17-13.2-7.3-16.95-14.33-.56-1.04-1.68-2.2-2.68-2.04-6.62,1.07-9.5-5.71-15.04-6.98-2.18-.5-3.75-2.57-4.95-4.69-3.11-5.5-8.35-8.39-13.98-10.46-3.12-1.14-5.13-2.71-5.85-6.04-.74-3.4-1.37-7.08-6.38-6.47-.97,.12-2-.65-2.35-1.61-1.83-5.07-5.94-8.63-8.74-13.07-3.42-5.42-8.4-9.88-15.53-10.44-1.3-.1-2.28-.77-2.77-1.85-1.54-3.41-4.75-5.3-6.97-7.89-3.94-4.6-9.71-6.07-13.76-10.18-1.88-1.91-4.25-3.52-5.01-6.06-1.72-5.75-6.03-8.94-10.7-11.95,.14,1.16,1.07,2.42-.21,3.51Z"></path>
  <path class="cls-14" d="M101.93,207.44c.24-2.21-2.17-3.33-2.24-6.28,5.79,3.28,11.5,5.33,13.72,12.43,2.01,6.4,7.76,9.52,13.67,11.98,.3,.13,.85,.08,.93,.27,2.03,4.75,8,5.52,10.2,10.22,1,2.14,1.32,6.51,5.86,3.43,1.2-.81,2.65,.08,3.21,1.51,.94,2.4,2.93,3.58,5.11,4.46,5.57,2.23,7.27,7.5,9.48,12.25,.72,1.55,.82,2.83,2.93,1.98,3.55-1.43,3.46-.01,1.86,2.48-.71,1.1-.8,2.19,.18,3.17,.98,.98,2.11,.95,3.17,.18,2.55-1.83,3.44-.59,4.02,1.91,.55,2.37,2.26,4.36,2.07,7.06-.14,1.97,1.66,3.2,3.23,3.26,5.85,.22,9.18,4.55,13.34,7.57,1.61,1.17,2.49,2.4,3.18,4.51,.97,2.95,4.42,4.24,7.44,5.25,.93,.31,2.66,.07,2.83,.52,1.46,4.05,4.55,4.27,8.19,4.32,2.39,.04,4.23,1.7,4.83,4.35,.38,1.71,1.72,2.66,3.13,3.67,3.86,2.78,8.27,4.75,11.57,8.39,1.33,1.46,3.45,2.96,5.49,.31,1.29-1.68,2.16-.91,3.5,.41,4.85,4.79,8.41,10.54,12.56,15.85,1.18,1.51,2.15,4.98,5.59,3.25,5.94,6.72,11.79,13.51,14.75,22.22-.93,5.98,1.49,11.83,.72,17.8-.21,1.61,.39,3.31-.46,4.9-1.84,.35-2.09-1.27-2.81-2.25-.68-.93-1.16-1.95-2.64-1.9-7.69,.27-13.93-3.68-19.71-7.84-2.66-1.92-4.64-.5-6.88-.87-5.76-9.02-15.17-11.59-24.69-13.94-5.58-1.38-11.29-2.48-15.23-7.3-9.88-13.29-19.82-26.54-29.64-39.88-11.89-16.16-23.66-32.39-35.49-48.59-1.59-2.53-2.98-5.2-5.29-7.2-1.89-2.63-3.79-5.25-5.68-7.88-2.47-3.36-4.2-7.24-7.34-10.11-6.21-8.62-12.43-17.24-18.64-25.85Z"></path>
  <path class="cls-10" d="M243.93,368.21c2.8-3.14,5.17-4.73,8.09,.29,2.03,3.5,6.82,2.91,10.18,4.65,2.56,1.32,4.82,3.95,8.95,1.56,2.79-1.62,2.88,3.35,4.84,5.82-.6-5.29,.78-9.9-1.27-14.61-.91-2.1-.25-5.14,.99-7.56,2.57,18.04,.99,36.18,1.23,54.27,.3,22.28,.08,44.57,.07,66.85,0,2.33-.08,4.66,.75,6.9-10.35-5.01-20.06-11.11-29.74-17.25-1.99-1.93-2.07-4.43-2.07-6.95-.03-18.61-.59-37.25,.23-55.83,.42-9.42,.26-18.85,.89-28.25-.09-3.61-1.68-6.73-3.14-9.9Z"></path>
  <path class="cls-65" d="M281.84,492.24c-1.24-1.47-2.57-2.89-2.93-4.89-.01-38.15-.04-76.3-.02-114.46,0-5.51-.86-10.9-1.97-16.43,2.12-.26,2.94,.85,3.35,2.54,.68,2.73,1.61,5.39,1.61,8.29-.03,41.65-.03,83.3-.04,124.95Z"></path>
  <path class="cls-59" d="M141.91,178.32c-2.58-1.71-5.4-2.2-8.48-2.19-17.4,.05-34.81-.02-52.21-.05,1.07-1.15,2.47-.78,3.75-.78,17.1-.05,34.2-.1,51.3-.07,2.33,0,5.19-.52,5.64,3.1Z"></path>
  <path class="cls-61" d="M411.87,395.49c-.07,.97,.02,2.3-1.35,2.12-1.34-.18-1.58-1.52-1.57-2.72,0-.97-.03-2.29,1.33-2.11,1.34,.17,1.54,1.52,1.59,2.72Z"></path>
  <path class="cls-61" d="M350.72,366.34c-1.2-.13-1.28-1.21-1.56-2.05-.21-.63-.03-1.4,.67-1.53,1.19-.23,1.71,.64,1.88,1.64,.14,.81-.04,1.58-.99,1.94Z"></path>
  <path class="cls-61" d="M365.53,375.63c-.34,.32-.71,.94-1.23,1.1-.87,.27-1.64-.18-1.83-1.11-.16-.75,.36-1.22,1.1-1.27,.81-.06,1.67-.09,1.97,1.29Z"></path>
  <path class="cls-18" d="M412.85,236.56c-.6-.24-1.41-.48-1.08-1.3,.37-.92,1.07-1.77,2.23-1.52,.75,.16,.87,.94,.68,1.6-.26,.85-.82,1.4-1.82,1.22Z"></path>
  <path class="cls-29" d="M120.57,233.3c4,2.24,5.81,6.08,7.34,10.11-3.15-2.86-5.22-6.51-7.34-10.11Z"></path>
  <path class="cls-29" d="M133.59,251.29c3.13,1.39,4.54,4.05,5.29,7.2-2.33-1.98-3.95-4.49-5.29-7.2Z"></path>
  <path class="cls-60" d="M247.07,378.11c1.13,1.44,.87,3.16,.87,4.8,.04,28.74,.05,57.49,.07,86.23-9.43-3.66-17.63-9.59-26.51-14.27-1.46-.77-2.74-1.88-4.53-1.7,.02-22.62,.04-45.24,.06-67.86,2.21,4.77-.07,10.03,1.91,15.44,1.54-8.08,7.32-9.6,13.96-10.66,8.29-1.32,11.18,3.08,12.22,10.6,.27-8.62,2.54-16.89-2.13-24.5-1.02-1.99-2.05-3.98-3.07-5.97,2.56-2.06,3.37,.06,4.38,1.81,1.13,1.94,.64,4.61,2.76,6.09Z"></path>
</svg><style>@media (prefers-color-scheme: light) { :root { filter: none; } }
@media (prefers-color-scheme: dark) { :root { filter: none; } }
</style></svg>